<?xml version="1.0" encoding="utf-8"?>
<!-- Generator: Adobe Illustrator 25.3.1, SVG Export Plug-In . SVG Version: 6.00 Build 0)  -->
<svg version="1.1" id="Ebene_1" xmlns="http://www.w3.org/2000/svg" xmlns:xlink="http://www.w3.org/1999/xlink" x="0px" y="0px"
	 viewBox="0 0 1028.4 397.7" style="enable-background:new 0 0 1028.4 397.7;" xml:space="preserve">
<style type="text/css">
	.st0{fill:#FFFFFF;}
</style>
<g>
	<g>
		<path d="M63.4,194.9c-3.6,9.3-3.1,20,1.4,28.9c4,8,11.1,14.3,19.4,17.5c8.4,3.3,18.1,2.9,26.5-0.3c8.8-3.3,16.1-9.2,21.4-17
			c5.9-8.8,8.9-19.4,9.2-29.9c0.1-3.2-4.9-3.2-5,0c-0.5,16.6-8.5,33.3-23.9,40.8c-7.1,3.5-15.5,4.7-23.2,2.7
			c-7.5-1.9-14.2-6.8-18.4-13.4c-5.3-8.4-6.1-18.9-2.5-28c0.5-1.3-0.5-2.7-1.8-3.1C65,192.8,63.9,193.7,63.4,194.9L63.4,194.9z"/>
	</g>
</g>
<g>
	<g>
		<path d="M156.2,195.5c1.1,10.1,3.7,20,7.8,29.3c1.8,4.1,3.9,8.4,7.4,11.3c3.6,3,8.1,4.1,12.8,4.4c4.6,0.2,9.6,0.2,14.2-0.8
			c4.2-0.9,7.9-3.3,10.5-6.7c5.5-7.1,6.6-16.8,6.9-25.4c0.5-12.1-1.2-24.2-2.8-36.3c-0.2-1.3-1.9-2.1-3.1-1.8
			c-1.4,0.4-1.9,1.7-1.8,3.1c1.3,9.7,2.6,19.5,2.7,29.3c0,4.8-0.2,9.7-0.9,14.5c-0.6,3.5-1.4,7-3,10.1c-1.5,3-3.6,5.6-6.6,7.1
			c-3.7,1.9-8.3,1.7-12.4,1.8c-3.8,0.1-7.9,0-11.3-1.8c-3.5-1.9-5.5-5.4-7.2-8.9c-4.4-9.2-7.2-19.2-8.3-29.4c-0.1-1.3-1-2.5-2.5-2.5
			C157.5,193,156.1,194.1,156.2,195.5L156.2,195.5z"/>
	</g>
</g>
<g>
	<g>
		<path d="M675.7,162c-2.1,15.5-5.5,30.9-10.2,45.8c-2.3,7.3-5,14.5-6.6,22c-1.5,6.9-2.5,14.8-0.2,21.6c2.1,6.5,7.5,10.4,14.2,11.1
			c6.5,0.7,12.6-2.2,17.4-6.5c4.9-4.4,8.6-10.2,11.5-16.1c2.9-5.9,5-12.1,6.5-18.5c3.6-14.8,4.7-30,7.7-44.9
			c0.3-1.3-0.4-2.7-1.8-3.1c-1.2-0.3-2.8,0.4-3.1,1.8c-2.6,12.8-3.7,25.7-6.3,38.5c-2.4,12-6.1,24.4-13.8,34.2
			c-3.5,4.4-8.1,8.6-13.9,9.5c-5,0.9-10.5-1-13-5.7c-1.4-2.7-1.7-5.9-1.7-8.9c0-3.6,0.4-7.2,1.1-10.8c1.4-7,3.9-13.8,6.1-20.6
			c5.2-16.1,8.8-32.6,11.1-49.4c0.2-1.3-1.3-2.5-2.5-2.5C676.7,159.5,675.9,160.7,675.7,162L675.7,162z"/>
	</g>
</g>
<g>
	<g>
		<path d="M719,176.1c-1.1,14.4-0.2,29.1,3.1,43.1c2.8,12,9.3,24.4,21.8,28.4c5.8,1.8,13.1,1.4,17.3-3.5c4.3-4.9,4.8-12.3,4.5-18.6
			c-0.7-13.8-7.2-26.5-13.8-38.4c-7.1-12.6-15-25.7-16-40.5c-0.1-1.4-1.1-2.5-2.5-2.5c-1.3,0-2.6,1.1-2.5,2.5
			c1.7,26.2,22.6,45.4,28.5,70.3c1.4,5.9,2,12.3,0.6,18.2c-0.6,2.4-1.5,5-3.6,6.6c-2.1,1.6-4.9,1.9-7.4,1.8c-5.2-0.4-9.8-3.3-13.3-7
			c-4-4.3-6.4-9.9-8-15.4c-2-7.1-3.1-14.5-3.7-21.8c-0.6-7.7-0.7-15.5-0.1-23.2c0.1-1.4-1.2-2.5-2.5-2.5
			C720.1,173.6,719.1,174.8,719,176.1L719,176.1z"/>
	</g>
</g>
<g>
	<g>
		<path d="M462.8,207.3c1.5,12,11.8,20.9,23.5,22.3c6.4,0.8,12.9-0.8,18.6-3.6c2.9-1.5,5.7-3.4,8.2-5.5c2.4-2.1,4.3-4.5,6.6-6.7
			c10.2-10,24.1-0.1,33.8,5.5c5.6,3.2,11.9,6.1,18.5,6.4c6.5,0.4,12.5-2.4,16.2-7.7c4.1-5.7,5-13.4,4.2-20.3
			c-0.9-7.5-4-14.5-8.9-20.2c-0.9-1-2.6-0.9-3.5,0c-1,1-0.9,2.5,0,3.5c3.8,4.5,6.3,9.9,7.3,15.7c0.9,5.4,0.6,11.4-1.9,16.3
			c-2.5,4.8-6.9,7.7-12.4,7.7c-5.9-0.1-11.5-2.8-16.5-5.6c-10.2-5.7-22.3-14.4-34.4-9c-5.7,2.5-8.9,8.1-13.6,11.9
			c-4.4,3.4-9.7,5.9-15.2,6.6c-5.9,0.8-11.8-0.6-16.7-3.9c-4.4-3-7.9-7.9-8.6-13.3c-0.2-1.3-1-2.5-2.5-2.5
			C464.1,204.8,462.6,206,462.8,207.3L462.8,207.3z"/>
	</g>
</g>
<g>
	<g>
		<path d="M862.3,169.3c-6,8.9-12.1,17.7-18.1,26.6c-4.5,6.7-9.2,13.8-15.7,18.7c-3.3,2.5-7.3,4.4-11.5,4.9c-1,0.1-1.9,0.6-2.3,1.5
			c-0.3,0.9-0.2,2.1,0.5,2.7c8,6.7,17.8,10.4,27.8,12.6c5.2,1.1,10.6,2,16,2.5c5.5,0.5,11.3,0.2,16.2-2.5c4.7-2.6,8.3-7.4,8.4-13
			c0-3.2-5-3.2-5,0c0,3.8-2.7,6.9-5.9,8.6c-4.2,2.3-9.2,2.2-13.9,1.8c-9.2-0.9-18.6-2.6-27.2-6.1c-4.6-1.8-9-4.3-12.8-7.5
			c-0.6,1.4-1.2,2.9-1.8,4.3c8.8-0.9,15.8-6.1,21.5-12.6c6.5-7.5,11.8-16.1,17.4-24.4c3.6-5.2,7.2-10.5,10.7-15.8
			C868.4,169.1,864.1,166.6,862.3,169.3L862.3,169.3z"/>
	</g>
</g>
<g>
	<g>
		<path d="M922.2,160.5c-3.2,8.8-0.4,18.5,5.1,25.8c6.1,8.1,15.2,12.8,24.7,15.8c5.5,1.7,11.2,2.9,16.9,4c-0.4-1.4-0.7-2.8-1.1-4.2
			c-7.4,9.4-16.8,16.9-27.6,22c-5.3,2.5-10.9,4.4-16.6,5.6c-2.8,0.6-5.7,1-8.6,1.3c-3,0.2-6.2,0.5-8.9-1c-2.8-1.5-4.8-4-6.7-6.4
			c-1.8-2.3-4.6-5.5-3.3-8.6c0.5-1.2-0.6-2.8-1.8-3.1c-1.4-0.4-2.5,0.5-3.1,1.8c-1.5,3.5,0.2,7.3,2.1,10.2c1.9,2.7,4,5.5,6.4,7.8
			c2.7,2.4,5.8,4.1,9.5,4.5c3.4,0.4,6.9-0.1,10.3-0.6c12.9-1.8,25.3-6.9,35.9-14.5c6-4.4,11.4-9.4,16-15.3c1-1.3,0.9-3.8-1.1-4.2
			c-16.6-3.3-37.6-7.9-43.3-26.3c-1.3-4.3-1.4-8.8,0.1-13c0.5-1.3-0.5-2.7-1.8-3.1C923.9,158.4,922.7,159.2,922.2,160.5L922.2,160.5
			z"/>
	</g>
</g>
<g>
	<g>
		<path d="M284.8,183.8c-2.5-1.7-5.9-1.4-8.4,0.1c-2.8,1.7-4.3,4.8-5.1,7.9c-0.7,2.9-1.1,6-1.4,9c-0.3,2.8-0.5,5.7-0.5,8.5
			c0.1,5.5,1.2,11.3,4.6,15.8c3.9,5.3,10,7.9,16.3,9.1c12.4,2.5,25.5,0.4,36.5-5.7c2.7-1.5,5.6-3.3,7.8-5.5c2.6-2.5,3.3-5.7,3.6-9.2
			c0.5-5.8,0.9-12.1-1.1-17.7c-2.3-6.4-7.4-10.3-13.9-12c-6.1-1.6-12.6-1.4-18.6-3.8c-1.3-0.5-2.7,0.5-3.1,1.8
			c-0.4,1.4,0.5,2.6,1.8,3.1c4.7,1.8,9.8,2.1,14.7,3c4.5,0.8,9.3,1.9,12.3,5.6c3.1,3.8,3.4,9.1,3.3,13.8c-0.1,2.6-0.1,5.4-0.6,8
			c-0.5,2.7-2.1,4.2-4.3,5.8c-9,6.4-20,9.4-31,8.8c-5.3-0.3-11.1-1.3-15.7-4.2c-4-2.5-6.2-6.7-7.1-11.3c-1-5.3-0.5-10.9,0.2-16.2
			c0.4-2.8,0.6-6,2-8.5c1-1.8,3.2-3.2,5-2c1.1,0.8,2.8,0.2,3.4-0.9C286.4,186,285.9,184.5,284.8,183.8L284.8,183.8z"/>
	</g>
</g>
<g>
	<g>
		<path class="st0" d="M87.5,215.9c-1.5,5.9,3.7,11.4,9.4,11.8c1.6,0.1,3.2-0.3,4.6-1.1c1.1-0.7,1.6-2.3,0.9-3.4
			c-0.7-1.1-2.2-1.6-3.4-0.9c-0.2,0.1-0.3,0.2-0.4,0.2c-0.4,0.2,0.6-0.2,0,0c-0.3,0.1-0.6,0.2-0.8,0.2c-0.4,0.1,0.7-0.1,0.1,0
			c-0.2,0-0.3,0-0.5,0c-0.1,0-0.3,0-0.4,0c-0.2,0-0.7-0.1,0.1,0c-0.3-0.1-0.7-0.1-1-0.2c-0.1,0-0.2-0.1-0.4-0.1
			c-0.2-0.1-0.7-0.4,0,0c-0.6-0.3-1.1-0.6-1.6-1c0.7,0.4,0.2,0.1,0,0c-0.1-0.1-0.2-0.2-0.3-0.2c-0.2-0.2-0.5-0.5-0.7-0.7
			c-0.3-0.3,0.4,0.5,0,0c-0.1-0.1-0.1-0.2-0.2-0.3c-0.2-0.3-0.3-0.6-0.5-0.9c-0.2-0.4,0.2,0.6,0.1,0.1c-0.1-0.1-0.1-0.3-0.2-0.5
			c0-0.2-0.1-0.3-0.1-0.5c-0.1-0.6,0,0.5,0,0.1c0-0.3,0-0.6,0-0.9c0-0.7-0.1,0.5,0,0.1c0-0.2,0.1-0.3,0.1-0.5
			c0.3-1.3-0.4-2.8-1.8-3.1C89.2,213.9,87.8,214.5,87.5,215.9L87.5,215.9z"/>
	</g>
</g>
<g>
	<g>
		<path class="st0" d="M92.5,198.7c-5.5,4.6-6.2,12.6-5.1,19.2c0.6,3.8,2.2,7.5,5.4,9.8c2.8,2.1,7,2.8,10,0.8
			c3.2-2.1,4.8-6.7,2.5-10.1c-1.8-2.6-6.1-0.1-4.3,2.5c0.5,0.8,0.6,1.4,0,2.3c-0.5,0.9-1.3,1.4-2.3,1.4c-3.1,0.1-5.1-2.9-5.9-5.5
			c-1.6-5.5-1.5-13,3.2-17c1-0.9,0.9-2.6,0-3.5C95,197.7,93.6,197.8,92.5,198.7L92.5,198.7z"/>
	</g>
</g>
<g>
	<g>
		<path d="M174.5,228.6c0.1-2,1.3-3.8,3.1-4.9c1.9-1.2,4.4-1.8,6.5-1.4c6,1,9.9,6.8,12.2,11.9c0.6,1.2,2.3,1.5,3.4,0.9
			c1.2-0.7,1.5-2.2,0.9-3.4c-3.2-6.8-8.8-13.7-16.8-14.4c-6.8-0.6-14.2,4.2-14.4,11.4C169.4,231.8,174.4,231.8,174.5,228.6
			L174.5,228.6z"/>
	</g>
</g>
<g>
	<g>
		<path d="M95.4,238.7c0.7-0.5,1.4-0.9,2.2-1.3c0.1-0.1,0.2-0.1,0.3-0.1c-0.3,0.1-0.4,0.2-0.1,0.1c0.2-0.1,0.4-0.2,0.7-0.2
			c0.4-0.1,0.8-0.2,1.2-0.4c0.2-0.1,0.4-0.1,0.6-0.1c0.1,0,0.2,0,0.3-0.1c0.3,0,0.2,0-0.2,0c0.1-0.1,0.5-0.1,0.7-0.1
			c0.2,0,0.4,0,0.6,0c0.4,0,0.9,0,1.3,0c0.1,0,0.2,0,0.3,0c0.3,0,0.2,0-0.2,0c0.2,0,0.5,0.1,0.7,0.1c1.3,0.2,2.8-0.4,3.1-1.8
			c0.3-1.2-0.4-2.8-1.8-3.1c-4.3-0.8-8.9,0-12.5,2.6c-0.5,0.4-1,0.8-1.2,1.5c-0.2,0.6-0.1,1.4,0.2,1.9
			C92.7,238.9,94.3,239.6,95.4,238.7L95.4,238.7z"/>
	</g>
</g>
<g>
	<g>
		<path d="M178,233.2c0.2-0.1,0.4-0.3,0.7-0.4c0.4-0.2-0.6,0.2-0.2,0.1c0.1,0,0.2-0.1,0.3-0.1c0.2-0.1,0.4-0.1,0.6-0.1
			c0.4-0.1-0.7,0.1-0.2,0c0.1,0,0.2,0,0.3,0c0.2,0,0.5,0,0.7,0c0.2,0,0.6,0.1-0.2,0c0.1,0,0.2,0,0.3,0.1c0.2,0.1,0.5,0.1,0.7,0.2
			c0.1,0,0.2,0.1,0.4,0.1c0.4,0.1-0.6-0.3-0.2-0.1c0.4,0.2,0.8,0.4,1.2,0.7c0.2,0.1-0.5-0.4-0.1-0.1c0.1,0.1,0.2,0.1,0.2,0.2
			c0.2,0.1,0.3,0.3,0.5,0.5c0.3,0.4-0.1-0.2-0.1-0.2c0.1,0,0.2,0.3,0.2,0.3c0.1,0.2,0.2,0.4,0.4,0.6c0.2,0.4-0.2-0.6-0.1-0.2
			c0,0.1,0.1,0.2,0.1,0.3c0.1,0.2,0.1,0.5,0.2,0.8c0.1,0.6,0.7,1.2,1.1,1.5c0.5,0.3,1.3,0.4,1.9,0.2c0.6-0.2,1.2-0.6,1.5-1.1
			c0.3-0.6,0.4-1.2,0.2-1.9c-0.4-2.6-2.5-5-4.9-6c-2.6-1.2-5.8-1.3-8.3,0.3c-1.1,0.7-1.7,2.2-0.9,3.4
			C175.3,233.4,176.9,234,178,233.2L178,233.2z"/>
	</g>
</g>
<g>
	<g>
		<path d="M302.3,214.7c-1.9-0.8-2.8-2.1-3.3-4.1c-0.4-1.9-0.3-3.9,0.5-5.8c1.7-4.5,6.4-7.9,11.1-8.6c4.9-0.7,10.3,1.4,13.4,5.4
			c1.5,1.9,2.5,4.5,1.6,6.9c-0.8,2.2-3,3.6-5,4.6c-6.1,3-13.6,3.2-20,1.4c-3.1-0.9-4.4,4-1.3,4.8c7.5,2.1,15.9,1.7,23.1-1.5
			c3-1.3,5.9-3.4,7.4-6.4c1.7-3.4,1.4-7.1-0.3-10.5c-3.2-6.3-10.5-10.1-17.4-9.9c-6.8,0.2-13.5,4.4-16.5,10.5
			c-2.9,5.7-2.3,14.6,4.3,17.6c1.2,0.5,2.7,0.4,3.4-0.9C303.8,217,303.5,215.2,302.3,214.7L302.3,214.7z"/>
	</g>
</g>
<g>
	<g>
		<path d="M305.9,204.8c-0.2,2.5,1.7,4.5,3.9,5.4c2,0.8,4.6,0.4,6.1-1.3c0.4-0.5,0.8-1.1,0.7-1.8c0-0.7-0.3-1.2-0.7-1.8
			c-2.5-2.9-7-4.1-10.6-2.7c-0.6,0.2-1.1,0.6-1.5,1.1c-0.3,0.5-0.5,1.3-0.2,1.9c0.4,1.2,1.8,2.2,3.1,1.8c0.5-0.2,1-0.3,1.5-0.4
			c-0.2,0-0.4,0.1-0.7,0.1c0.7-0.1,1.3-0.1,2,0c-0.2,0-0.4-0.1-0.7-0.1c0.7,0.1,1.4,0.3,2,0.6c-0.2-0.1-0.4-0.2-0.6-0.2
			c0.5,0.2,1,0.5,1.4,0.8c0.5,0.3-0.4-0.4-0.1-0.1c0.1,0.1,0.2,0.1,0.3,0.2c0.2,0.2,0.4,0.4,0.6,0.6c0-1.2,0-2.4,0-3.5
			c-0.1,0.1-0.1,0.2-0.2,0.2c-0.2,0.2-0.4,0.2,0.2-0.2c-0.2,0.1-0.3,0.2-0.5,0.3c0.2-0.1,0.4-0.2,0.6-0.2c-0.2,0.1-0.5,0.1-0.7,0.2
			c0.2,0,0.4-0.1,0.7-0.1c-0.3,0-0.6,0-0.9,0c0.2,0,0.4,0.1,0.7,0.1c-0.3-0.1-0.7-0.1-1-0.3c0.2,0.1,0.4,0.2,0.6,0.2
			c-0.2-0.1-0.4-0.2-0.6-0.3c-0.1-0.1-0.1-0.1-0.2-0.1c0.7,0.4,0.4,0.3,0.2,0.1c-0.1-0.1-0.2-0.2-0.2-0.2c-0.1-0.2-0.2-0.4,0.2,0.2
			c-0.1-0.2-0.2-0.4-0.3-0.6c0.1,0.2,0.2,0.4,0.2,0.6c-0.1-0.2-0.1-0.4-0.2-0.6c0,0.2,0.1,0.4,0.1,0.7c0-0.2,0-0.3,0-0.5
			c0.1-1.3-1.2-2.6-2.5-2.5C307,202.4,306,203.4,305.9,204.8L305.9,204.8z"/>
	</g>
</g>
<g>
	<g>
		<path d="M490.6,216.7c3.2,0,3.2-5,0-5S487.4,216.7,490.6,216.7L490.6,216.7z"/>
	</g>
</g>
<g>
	<g>
		<path d="M577.9,205.7c0,0,0.1,0.1,0.1,0.1c-0.1-0.2-0.3-0.3-0.4-0.5c0.1,0.1,0.1,0.2,0.2,0.3c-0.1-0.2-0.2-0.4-0.2-0.6
			c0,0.1,0.1,0.2,0.1,0.3c0-0.2-0.1-0.4-0.1-0.7c0,0.1,0,0.3,0,0.4c0-0.2,0.1-0.4,0.1-0.7c0,0.2-0.1,0.3-0.1,0.5
			c0.1-0.2,0.2-0.4,0.2-0.6c-0.1,0.2-0.2,0.3-0.3,0.5c0.1-0.2,0.3-0.3,0.4-0.5c-0.1,0.1-0.2,0.3-0.4,0.4c0.2-0.1,0.3-0.3,0.5-0.4
			c-0.1,0.1-0.3,0.2-0.4,0.2c0.2-0.1,0.4-0.2,0.6-0.2c-0.1,0.1-0.2,0.1-0.4,0.1c0.2,0,0.4-0.1,0.7-0.1c-0.1,0-0.2,0-0.3,0
			c0.2,0,0.4,0.1,0.7,0.1c-0.1,0-0.2,0-0.3-0.1c0.2,0.1,0.4,0.2,0.6,0.2c-0.1-0.1-0.2-0.1-0.3-0.2c0.2,0.1,0.3,0.3,0.5,0.4
			c-0.1-0.1-0.2-0.1-0.2-0.2c0.1,0.2,0.3,0.3,0.4,0.5c-0.1-0.1-0.1-0.2-0.2-0.3c0.1,0.2,0.2,0.4,0.2,0.6c0-0.1-0.1-0.2-0.1-0.4
			c0,0.2,0.1,0.4,0.1,0.7c0-0.2,0-0.3,0-0.5c0,0.2-0.1,0.4-0.1,0.7c0-0.2,0.1-0.4,0.2-0.6c-0.1,0.2-0.2,0.4-0.2,0.6
			c0.1-0.2,0.2-0.3,0.3-0.5c-0.1,0.2-0.3,0.3-0.4,0.5c0.1-0.1,0.2-0.2,0.3-0.3c-0.2,0.1-0.3,0.3-0.5,0.4c0.1-0.1,0.2-0.1,0.3-0.2
			c-0.2,0.1-0.4,0.2-0.6,0.2c0.1-0.1,0.2-0.1,0.3-0.1c-0.2,0-0.4,0.1-0.7,0.1c0.1,0,0.2,0,0.3,0c-0.2,0-0.4-0.1-0.7-0.1
			c0,0,0.1,0,0.1,0c0.7,0.1,1.3,0.1,1.9-0.2c0.3-0.2,0.5-0.4,0.7-0.6c0.2-0.2,0.4-0.5,0.5-0.9c0.2-0.6,0.1-1.4-0.2-1.9
			c-0.3-0.5-0.9-1-1.5-1.1c-0.3-0.1-0.6-0.1-0.9-0.1c-0.1,0-0.2,0-0.2,0c-0.7,0.1-1,0.1-1.6,0.4c-0.7,0.3-1.1,0.9-1.5,1.4
			c-0.1,0.1-0.2,0.3-0.2,0.4c-0.2,0.3-0.3,0.7-0.4,1c0,0.2-0.1,0.4-0.1,0.5s-0.1,0.4-0.1,0.6c0,0.4,0,0.7,0.1,1.1
			c0.1,0.3,0.2,0.7,0.4,1c0.1,0.2,0.3,0.4,0.5,0.6c0,0.1,0.1,0.1,0.2,0.2c0.5,0.4,0.9,0.6,1.5,0.9c0.3,0.1,0.7,0.2,1.1,0.2
			s0.8,0,1.1-0.2c0.3-0.1,0.5-0.2,0.8-0.3c0.1,0,0.2-0.1,0.2-0.1c0.6-0.4,1.1-0.9,1.5-1.6c0-0.1,0.1-0.2,0.1-0.2
			c0.1-0.3,0.2-0.5,0.3-0.8c0.1-0.4,0.2-0.8,0.2-1.2c0-1-0.4-1.9-1.1-2.7c-0.2-0.2-0.5-0.4-0.8-0.5c-0.3-0.2-0.6-0.2-1-0.2
			c-0.3,0-0.7,0.1-1,0.2c-0.3,0.1-0.6,0.3-0.8,0.5c-0.4,0.5-0.8,1.1-0.7,1.8C577.2,204.6,577.5,205.2,577.9,205.7L577.9,205.7z"/>
	</g>
</g>
<g>
	<g>
		<path d="M664.9,246.4c3.6-1.9,7.9-0.6,11,1.6c3.7,2.6,6.2,6.6,8.6,10.3c1.8,2.7,6.1,0.2,4.3-2.5c-3-4.6-6.2-9.4-11-12.4
			c-4.6-2.9-10.6-3.8-15.5-1.2C659.5,243.6,662,248,664.9,246.4L664.9,246.4z"/>
	</g>
</g>
<g>
	<g>
		<path d="M670.6,256.7c3.2,0,3.2-5,0-5C667.4,251.7,667.4,256.7,670.6,256.7L670.6,256.7z"/>
	</g>
</g>
<g>
	<g>
		<path d="M672.9,256.7c3.2,0,3.2-5,0-5C669.7,251.7,669.7,256.7,672.9,256.7L672.9,256.7z"/>
	</g>
</g>
<g>
	<g>
		<path d="M668.2,256.7c3.2,0,3.2-5,0-5S665,256.7,668.2,256.7L668.2,256.7z"/>
	</g>
</g>
<g>
	<g>
		<path d="M746.2,237c-1.7-4.7-0.5-10,3.2-13.4c3.6-3.3,9.4-3.9,13.7-1.7c1.2,0.6,2.7,0.3,3.4-0.9c0.7-1.1,0.3-2.8-0.9-3.4
			c-6.3-3.3-14.2-2.4-19.5,2.3c-5.1,4.4-7,12.2-4.7,18.5c0.5,1.3,1.7,2.1,3.1,1.8C745.6,239.7,746.6,238.2,746.2,237L746.2,237z"/>
	</g>
</g>
<g>
	<g>
		<path d="M755.3,234.7c-0.1,0.4-0.2,0.8-0.1,1.2c0,0.3,0.1,0.6,0.1,0.9c0.1,0.3,0.2,0.6,0.3,0.8c0.3,0.8,0.9,1.3,1.6,1.8
			c0.7,0.5,1.5,0.7,2.3,0.7c1,0,1.9-0.4,2.6-1.1c0.9-0.9,1.3-2.1,1.3-3.4c0-0.5-0.1-1.1-0.2-1.6c-0.2-0.5-0.4-1-0.7-1.5
			c-0.5-0.7-0.9-1.1-1.6-1.6c-0.7-0.4-1.4-0.6-2.2-0.7c-0.6-0.1-1.4,0.3-1.8,0.7c-0.4,0.4-0.8,1.1-0.7,1.8c0,0.6,0.2,1.3,0.7,1.8
			c0.2,0.1,0.3,0.3,0.5,0.4c0.4,0.2,0.8,0.3,1.3,0.3c0,0,0.1,0,0.1,0c-0.2,0-0.4-0.1-0.7-0.1c0.2,0,0.3,0.1,0.5,0.1
			c-0.2-0.1-0.4-0.2-0.6-0.2c0.2,0.1,0.3,0.2,0.5,0.3c-0.2-0.1-0.3-0.3-0.5-0.4c0.2,0.1,0.3,0.3,0.4,0.4c-0.1-0.2-0.3-0.3-0.4-0.5
			c0.2,0.2,0.3,0.4,0.4,0.7c-0.1-0.2-0.2-0.4-0.2-0.6c0.1,0.3,0.2,0.5,0.2,0.8c0-0.2-0.1-0.4-0.1-0.7c0,0.3,0,0.6,0,0.8
			c0-0.2,0.1-0.4,0.1-0.7c0,0.2-0.1,0.4-0.2,0.6c0.1-0.2,0.2-0.4,0.2-0.6c-0.1,0.2-0.2,0.3-0.3,0.5c0.1-0.2,0.3-0.3,0.4-0.5
			c-0.1,0.1-0.2,0.2-0.3,0.3c0.2-0.1,0.3-0.3,0.5-0.4c0,0-0.1,0.1-0.1,0.1c0.2-0.1,0.4-0.2,0.6-0.2c-0.1,0-0.1,0-0.2,0
			c0.2,0,0.4-0.1,0.7-0.1c-0.1,0-0.3,0-0.4,0c0.2,0,0.4,0.1,0.7,0.1c-0.2,0-0.3-0.1-0.5-0.1c0.2,0.1,0.4,0.2,0.6,0.2
			c-0.2-0.1-0.3-0.1-0.4-0.2c0.2,0.1,0.3,0.3,0.5,0.4c-0.2-0.1-0.3-0.2-0.4-0.4c0.1,0.2,0.3,0.3,0.4,0.5c-0.1-0.1-0.2-0.3-0.3-0.5
			c0.1,0.2,0.2,0.4,0.2,0.6c0-0.1-0.1-0.3-0.1-0.4c0,0.2,0.1,0.4,0.1,0.7c0-0.1,0-0.3,0-0.4c0,0.2-0.1,0.4-0.1,0.7
			c0-0.1,0-0.1,0-0.2c0.2-0.6,0.1-1.3-0.2-1.9c-0.3-0.5-0.9-1-1.5-1.1c-0.6-0.1-1.4-0.1-1.9,0.2
			C755.9,233.5,755.5,234.1,755.3,234.7L755.3,234.7z"/>
	</g>
</g>
<g>
	<g>
		<path d="M838.7,207.1c0,6.7,0,13.3,0,20c0,3.2,5,3.2,5,0c0-6.7,0-13.3,0-20C843.7,203.9,838.7,203.9,838.7,207.1L838.7,207.1z"/>
	</g>
</g>
<g>
	<g>
		<path d="M945,197.7c-3.2,6.9-2.6,15.3,2,21.4c0.8,1.1,2.2,1.6,3.4,0.9c1.1-0.6,1.7-2.3,0.9-3.4c-1.8-2.4-3-5.2-3.3-7.9
			c-0.1-0.8-0.1-1.5-0.1-2.3c0-0.4,0-0.8,0-1.2c0-0.2,0-0.4,0-0.6c0-0.5,0,0.3,0-0.2c0.2-1.4,0.7-3.1,1.2-4.2
			c0.6-1.2,0.3-2.7-0.9-3.4C947.4,196.1,945.6,196.4,945,197.7L945,197.7z"/>
	</g>
</g>
<g>
	<g>
		<path d="M79,232.8c3.2-6.5,8.3-11.9,14.9-15.1c6.5-3.2,14.6-3.9,21,0c3,1.8,5.5,4.6,6.7,7.9c0.4,1.3,1.7,2.1,3.1,1.8
			c1.2-0.3,2.2-1.8,1.8-3.1c-2.8-8-10.3-13.2-18.5-14.2c-8.9-1.1-17.9,2.8-24.5,8.7c-3.5,3.2-6.5,7.1-8.5,11.3
			c-0.6,1.2-0.3,2.7,0.9,3.4C76.7,234.3,78.4,234,79,232.8L79,232.8z"/>
	</g>
</g>
<g>
	<g>
		<path d="M975.8,199.2c-5.8-2.2-12.8,0.5-15.9,5.8c-0.8,1.5,0,3.2,1.5,3.7c3.6,1.2,7.5,2.2,11.1,0.4c3-1.5,5.2-5.1,4.1-8.5
			c-0.4-1.2-1.7-2.2-3.1-1.8c-1.2,0.4-2.2,1.8-1.8,3.1c0,0.1,0.1,0.2,0.1,0.4c0.2,0.5,0-0.3,0-0.1c0,0.1,0,0.2,0,0.4
			c0,0.5-0.1,0.1,0-0.1c0,0-0.2,0.6-0.2,0.7c0.1-0.3,0.2-0.4,0.1-0.2c0,0.1,0,0.1-0.1,0.2c-0.1,0.1-0.1,0.2-0.2,0.3
			c-0.1,0.1-0.2,0.3-0.2,0.4c0.1-0.1,0.2-0.3,0-0.1c-0.2,0.2-0.4,0.4-0.6,0.6c-0.2,0.2,0.3-0.2,0.1-0.1c-0.1,0.1-0.3,0.2-0.4,0.2
			c-0.1,0.1-0.2,0.1-0.3,0.2c-0.4,0.2,0.3-0.1,0,0c-0.2,0.1-0.5,0.2-0.7,0.2c-0.2,0-0.5,0.1-0.2,0.1c-0.2,0-0.3,0-0.5,0
			c-0.4,0-0.7,0-1.1,0c-0.2,0-0.3,0-0.5,0c-0.2,0-0.2,0,0.1,0c-0.1,0-0.2,0-0.2,0c-1.5-0.3-2.8-0.7-4.2-1.2c0.5,1.2,1,2.4,1.5,3.7
			c0.2-0.3,0.3-0.5,0.5-0.8c0,0,0.4-0.5,0.1-0.2c-0.2,0.3,0.1-0.1,0.1-0.2c0.2-0.2,0.4-0.4,0.6-0.6c0.2-0.1,0.5-0.5,0.7-0.6
			c-0.2,0.1-0.3,0.2,0,0c0.1-0.1,0.2-0.2,0.4-0.2c0.2-0.2,0.5-0.3,0.8-0.5s0.5-0.3,0.8-0.4c0.4-0.2-0.3,0.1,0,0
			c0.1-0.1,0.3-0.1,0.4-0.1c0.6-0.2,1.1-0.3,1.7-0.4c0.1,0,0.2,0,0.3-0.1c-0.6,0.2-0.2,0,0,0c0.3,0,0.5,0,0.8,0c0.3,0,0.6,0,0.9,0
			c0.1,0,0.3,0,0.4,0c-0.4-0.2-0.3,0-0.1,0c0.6,0.1,1.2,0.3,1.8,0.5c1.2,0.5,2.8-0.5,3.1-1.8C977.9,200.8,977.1,199.7,975.8,199.2
			L975.8,199.2z"/>
	</g>
</g>
<g>
	<g>
		<path d="M822.2,218.3c-2.2-1.1-4.8-1.4-7.2-0.8c-2.4,0.6-4.5,2.1-5.9,4.1c-0.7,1-0.3,2.9,0.9,3.4c2,0.9,4.1,1.4,6.3,1.3
			c2.2,0,4.3-0.6,6.3-1.5c1.2-0.6,1.6-2.4,0.9-3.4c-0.8-1.2-2.1-1.5-3.4-0.9c-0.1,0.1-0.2,0.1-0.3,0.1c0.3-0.1,0.4-0.2,0.1-0.1
			c-0.2,0.1-0.3,0.1-0.5,0.2c-0.4,0.1-0.8,0.2-1.1,0.3c-0.2,0.1-0.4,0.1-0.7,0.1c-0.1,0-0.2,0-0.3,0.1c0.1,0,0.2,0,0.3-0.1
			c0,0.1-1.1,0.1-1.3,0.1c-0.4,0-0.8,0-1.2,0c-0.1,0-0.2,0-0.2,0c-0.3,0-0.2,0,0.2,0c-0.1,0.1-0.5-0.1-0.6-0.1
			c-0.4-0.1-0.8-0.2-1.2-0.3c-0.2-0.1-0.4-0.1-0.6-0.2c-0.1-0.1-0.9-0.3-0.2-0.1c0.3,1.1,0.6,2.3,0.9,3.4c0.2-0.4-0.3,0.4-0.1,0.1
			c0.1-0.1,0.1-0.1,0.2-0.2c0.1-0.1,0.3-0.3,0.4-0.4c0.2-0.1,0.8-0.6,0.1-0.1c0.2-0.1,0.3-0.2,0.5-0.4s0.3-0.2,0.5-0.3
			c0.1-0.1,0.7-0.3,0.3-0.2c-0.4,0.2,0.2-0.1,0.3-0.1c0.2-0.1,0.4-0.1,0.7-0.2c0.2-0.1,0.4-0.1,0.6-0.1c0.3-0.1-0.6,0.1-0.3,0
			c0.1,0,0.2,0,0.3,0c0.4,0,0.8,0,1.2,0c0.1,0,0.5,0.1,0.1,0s0,0,0.1,0c0.2,0,0.4,0.1,0.6,0.1c0.2,0.1,0.4,0.1,0.6,0.2
			c0.3,0.1-0.2-0.1-0.2-0.1c0.1,0.1,0.2,0.1,0.4,0.2c1.2,0.6,2.8,0.3,3.4-0.9C823.7,220.6,823.5,218.9,822.2,218.3L822.2,218.3z"/>
	</g>
</g>
<g>
	<g>
		<path d="M352.2,220.5c11.9-9.6,25.7-17,40.2-21.8c4.2-1.4,8.5-2.5,12.9-3.5c3.1-0.7,1.8-5.5-1.3-4.8c-15.7,3.4-30.8,9.7-44.2,18.4
			c-3.8,2.5-7.5,5.2-11.1,8.1c-1,0.9-0.9,2.6,0,3.5C349.8,221.5,351.2,221.4,352.2,220.5L352.2,220.5z"/>
	</g>
</g>
<g>
	<g>
		<path d="M348.8,210.4c1.5,0.2,2.9,0.6,4.3,1c0.2,0.1,0.4,0.1,0.5,0.2c0.1,0.1,0.5,0.2,0.2,0.1c0.4,0.1,0.7,0.3,1.1,0.5
			c0.7,0.3,1.3,0.7,1.9,1.1c0.3,0.2,0.6,0.4,0.9,0.6c0.2,0.1,0.3,0.2,0.5,0.3c0.1,0.1,0.5,0.4,0.1,0.1c0.6,0.5,1.1,0.9,1.7,1.5
			s1,1.1,1.5,1.6c0,0,0.4,0.5,0.2,0.3c-0.2-0.2,0.2,0.3,0.2,0.3c0.2,0.3,0.5,0.6,0.7,1c0.7,1.1,2.2,1.6,3.4,0.9
			c1.1-0.7,1.7-2.2,0.9-3.4c-3.8-5.8-10-9.9-16.8-10.9c-1.3-0.2-2.8,0.3-3.1,1.8C346.8,208.5,347.4,210.2,348.8,210.4L348.8,210.4z"
			/>
	</g>
</g>
<g>
	<g>
		<path d="M363.9,203.2c2,2.3,4,4.7,6,7c0.4,0.5,1.2,0.7,1.8,0.7c0.6,0,1.4-0.3,1.8-0.7c0.4-0.5,0.8-1.1,0.7-1.8
			c0-0.7-0.3-1.2-0.7-1.8c-2-2.3-4-4.7-6-7c-0.4-0.5-1.2-0.7-1.8-0.7c-0.6,0-1.4,0.3-1.8,0.7c-0.4,0.5-0.8,1.1-0.7,1.8
			C363.2,202.1,363.5,202.6,363.9,203.2L363.9,203.2z"/>
	</g>
</g>
<g>
	<g>
		<path d="M376.2,194.9c1.9,4.9,5.2,9.1,9.6,12c1.1,0.7,2.8,0.3,3.4-0.9c0.7-1.2,0.3-2.7-0.9-3.4c-0.2-0.1-0.5-0.3-0.7-0.5
			c-0.2-0.1-0.5-0.3-0.7-0.5c0.1,0.2,0.3,0.3,0,0c-0.1-0.1-0.2-0.2-0.3-0.3c-0.2-0.2-0.4-0.4-0.6-0.5c-0.8-0.7-1.6-1.5-2.3-2.4
			c-0.1-0.1-0.1-0.2-0.2-0.3c0.5,0.5,0.1,0.1,0,0c-0.2-0.2-0.3-0.4-0.5-0.7c-0.3-0.4-0.6-0.9-0.8-1.3c-0.3-0.5-0.5-1-0.8-1.5
			c-0.1-0.2-0.2-0.5-0.3-0.8c-0.1-0.3,0.2,0.5,0,0.1c-0.1-0.1-0.1-0.3-0.2-0.5c-0.5-1.2-1.7-2.2-3.1-1.8
			C376.8,192.2,375.7,193.6,376.2,194.9L376.2,194.9z"/>
	</g>
</g>
<g>
	<g>
		<path d="M385.6,188.3c0,6.6,4.9,12.8,11.3,14.3c1.3,0.3,2.8-0.4,3.1-1.8c0.3-1.3-0.4-2.8-1.8-3.1c-0.3-0.1-0.7-0.2-1-0.3
			c-0.2-0.1-0.3-0.1-0.5-0.2c-0.1,0-0.5-0.2-0.2-0.1c0.4,0.2-0.2-0.1-0.2-0.1c-0.1-0.1-0.2-0.1-0.4-0.2c-0.3-0.2-0.6-0.3-0.9-0.5
			c-0.1-0.1-0.3-0.2-0.4-0.3c-0.2-0.1-0.6-0.3,0,0c-0.2-0.1-0.5-0.4-0.7-0.6c-0.5-0.4-0.9-0.9-1.3-1.4c-0.3-0.4,0.3,0.4,0,0
			c-0.1-0.1-0.2-0.2-0.2-0.4c-0.2-0.3-0.3-0.5-0.5-0.8c-0.2-0.3-0.3-0.6-0.5-0.9c0-0.1-0.1-0.1-0.1-0.2c-0.1-0.2,0-0.1,0.1,0.2
			c-0.1-0.1-0.1-0.4-0.2-0.5c-0.2-0.6-0.4-1.2-0.5-1.8c0-0.2,0-0.3-0.1-0.5c0.2,0.6,0,0.2,0,0c0-0.3,0-0.7,0-1
			c0-1.3-1.1-2.6-2.5-2.5C386.8,185.8,385.6,186.9,385.6,188.3L385.6,188.3z"/>
	</g>
</g>
<g>
	<g>
		<path d="M399.1,189.1c2.5,3.1,4.9,6.1,7.4,9.2c0.4,0.5,1.2,0.7,1.8,0.7c0.6,0,1.4-0.3,1.8-0.7c0.4-0.5,0.8-1.1,0.7-1.8
			c0-0.7-0.3-1.2-0.7-1.8c-2.5-3.1-4.9-6.1-7.4-9.2c-0.4-0.5-1.2-0.7-1.8-0.7c-0.6,0-1.4,0.3-1.8,0.7c-0.4,0.5-0.8,1.1-0.7,1.8
			C398.4,188,398.7,188.5,399.1,189.1L399.1,189.1z"/>
	</g>
</g>
<g>
	<g>
		<path d="M409.4,194.3c3.2,0,3.2-5,0-5S406.2,194.3,409.4,194.3L409.4,194.3z"/>
	</g>
</g>
</svg>
