<?xml version="1.0" encoding="utf-8"?>
<!-- Generator: Adobe Illustrator 25.3.1, SVG Export Plug-In . SVG Version: 6.00 Build 0)  -->
<svg version="1.1" id="Ebene_1" xmlns="http://www.w3.org/2000/svg" xmlns:xlink="http://www.w3.org/1999/xlink" x="0px" y="0px"
	 viewBox="0 0 1028.45 397.71" style="enable-background:new 0 0 1028.45 397.71;" xml:space="preserve">
<style type="text/css">
	.st0{fill:#FFFFFF;}
</style>
<g>
	<g>
		<path d="M63.38,194.93c-3.61,9.3-3.06,20.01,1.36,28.94c3.97,8.02,11.11,14.27,19.42,17.48c8.44,3.26,18.12,2.87,26.53-0.27
			c8.79-3.28,16.14-9.23,21.38-16.99c5.92-8.76,8.86-19.35,9.19-29.86c0.1-3.22-4.9-3.22-5,0c-0.51,16.56-8.54,33.29-23.92,40.76
			c-7.12,3.46-15.51,4.68-23.22,2.71c-7.54-1.92-14.24-6.83-18.4-13.4c-5.3-8.36-6.08-18.86-2.52-28.03
			c0.49-1.26-0.54-2.74-1.75-3.08C65.04,192.8,63.87,193.67,63.38,194.93L63.38,194.93z"/>
	</g>
</g>
<g>
	<g>
		<path d="M156.23,195.49c1.1,10.14,3.7,19.97,7.82,29.29c1.8,4.08,3.89,8.38,7.38,11.3c3.63,3.04,8.13,4.15,12.78,4.4
			c4.64,0.25,9.64,0.2,14.19-0.79c4.25-0.93,7.89-3.3,10.54-6.73c5.47-7.07,6.55-16.77,6.93-25.41c0.53-12.15-1.17-24.25-2.82-36.26
			c-0.18-1.34-1.9-2.07-3.08-1.75c-1.44,0.4-1.93,1.73-1.75,3.08c1.34,9.72,2.65,19.49,2.74,29.32c0.04,4.84-0.18,9.73-0.94,14.52
			c-0.55,3.46-1.4,6.99-2.98,10.14c-1.49,2.98-3.57,5.6-6.58,7.13c-3.72,1.9-8.29,1.74-12.36,1.81c-3.79,0.06-7.92,0.02-11.34-1.82
			c-3.5-1.88-5.53-5.39-7.2-8.86c-4.43-9.18-7.24-19.24-8.33-29.37c-0.15-1.34-1.04-2.5-2.5-2.5
			C157.49,192.99,156.08,194.13,156.23,195.49L156.23,195.49z"/>
	</g>
</g>
<g>
	<g>
		<path d="M675.71,162.04c-2.06,15.51-5.49,30.85-10.15,45.78c-2.28,7.31-4.99,14.51-6.62,22c-1.5,6.89-2.49,14.78-0.25,21.62
			c2.13,6.47,7.53,10.43,14.22,11.12c6.5,0.67,12.61-2.21,17.37-6.46c4.91-4.38,8.61-10.21,11.47-16.08
			c2.87-5.9,4.95-12.15,6.52-18.51c3.63-14.77,4.68-30.01,7.68-44.89c0.27-1.32-0.38-2.7-1.75-3.08c-1.23-0.34-2.81,0.42-3.08,1.75
			c-2.57,12.75-3.72,25.73-6.26,38.49c-2.4,12.04-6.13,24.37-13.81,34.17c-3.49,4.45-8.14,8.55-13.88,9.53
			c-5.05,0.86-10.55-0.98-12.97-5.7c-1.39-2.71-1.69-5.91-1.73-8.91c-0.05-3.64,0.37-7.25,1.1-10.81c1.44-7.03,3.89-13.8,6.08-20.62
			c5.18-16.1,8.82-32.64,11.06-49.4c0.18-1.34-1.28-2.5-2.5-2.5C676.71,159.54,675.89,160.69,675.71,162.04L675.71,162.04z"/>
	</g>
</g>
<g>
	<g>
		<path d="M719.03,176.14c-1.08,14.36-0.2,29.1,3.11,43.14c2.83,11.98,9.27,24.43,21.82,28.36c5.77,1.81,13.13,1.35,17.33-3.51
			c4.26-4.93,4.83-12.33,4.51-18.56c-0.71-13.82-7.16-26.53-13.81-38.37c-7.08-12.6-15.04-25.7-16.01-40.49
			c-0.09-1.35-1.09-2.5-2.5-2.5c-1.29,0-2.59,1.15-2.5,2.5c1.72,26.25,22.58,45.39,28.53,70.29c1.41,5.88,1.98,12.3,0.6,18.25
			c-0.57,2.44-1.54,5.01-3.62,6.57c-2.1,1.58-4.87,1.95-7.41,1.77c-5.16-0.36-9.83-3.33-13.29-7.02c-4.03-4.3-6.42-9.85-8.01-15.45
			c-2-7.07-3.07-14.47-3.68-21.78c-0.64-7.72-0.66-15.47-0.07-23.19c0.1-1.35-1.22-2.5-2.5-2.5
			C720.09,173.64,719.13,174.78,719.03,176.14L719.03,176.14z"/>
	</g>
</g>
<g>
	<g>
		<path d="M462.82,207.33c1.46,11.96,11.82,20.9,23.54,22.29c6.39,0.76,12.87-0.78,18.58-3.64c2.94-1.47,5.67-3.37,8.16-5.52
			c2.39-2.06,4.35-4.52,6.6-6.72c10.22-9.99,24.06-0.08,33.78,5.47c5.64,3.22,11.87,6.06,18.45,6.43
			c6.47,0.37,12.46-2.44,16.22-7.72c4.08-5.73,5.03-13.45,4.18-20.28c-0.93-7.5-4.01-14.48-8.93-20.22c-0.88-1.03-2.63-0.9-3.54,0
			c-1.02,1.02-0.88,2.51,0,3.54c3.82,4.46,6.29,9.95,7.31,15.73c0.94,5.35,0.59,11.41-1.9,16.31c-2.46,4.84-6.93,7.72-12.39,7.67
			c-5.86-0.06-11.52-2.75-16.52-5.57c-10.15-5.73-22.26-14.36-34.39-9c-5.66,2.5-8.9,8.14-13.65,11.86
			c-4.39,3.43-9.71,5.89-15.25,6.65c-5.89,0.81-11.76-0.55-16.66-3.92c-4.41-3.04-7.94-7.93-8.6-13.34c-0.16-1.34-1.03-2.5-2.5-2.5
			C464.09,204.83,462.65,205.98,462.82,207.33L462.82,207.33z"/>
	</g>
</g>
<g>
	<g>
		<path d="M862.27,169.28c-6.04,8.86-12.08,17.73-18.12,26.59c-4.55,6.68-9.17,13.78-15.7,18.73c-3.35,2.54-7.26,4.45-11.48,4.86
			c-1.01,0.1-1.89,0.55-2.28,1.54c-0.35,0.86-0.25,2.08,0.52,2.73c7.96,6.69,17.75,10.42,27.82,12.59
			c5.25,1.13,10.62,1.99,15.96,2.48c5.46,0.5,11.26,0.23,16.15-2.5c4.72-2.63,8.33-7.42,8.37-12.96c0.03-3.22-4.97-3.22-5,0
			c-0.03,3.8-2.71,6.87-5.89,8.64c-4.16,2.33-9.25,2.23-13.86,1.79c-9.18-0.87-18.59-2.65-27.19-6.06
			c-4.61-1.83-9.03-4.33-12.83-7.52c-0.59,1.42-1.18,2.85-1.77,4.27c8.76-0.85,15.85-6.09,21.5-12.56
			c6.55-7.49,11.81-16.15,17.39-24.35c3.58-5.25,7.16-10.5,10.73-15.75C868.4,169.14,864.07,166.64,862.27,169.28L862.27,169.28z"/>
	</g>
</g>
<g>
	<g>
		<path d="M922.21,160.53c-3.17,8.76-0.39,18.53,5.06,25.76c6.12,8.11,15.17,12.82,24.73,15.77c5.54,1.71,11.23,2.85,16.91,3.97
			c-0.37-1.39-0.74-2.79-1.1-4.18c-7.36,9.39-16.84,16.88-27.62,21.98c-5.29,2.5-10.9,4.36-16.63,5.58
			c-2.85,0.61-5.73,1.04-8.63,1.29c-2.99,0.25-6.16,0.47-8.89-1c-2.75-1.48-4.82-3.97-6.7-6.41c-1.79-2.33-4.61-5.5-3.31-8.61
			c0.52-1.25-0.56-2.75-1.75-3.08c-1.44-0.4-2.55,0.49-3.08,1.75c-1.46,3.49,0.16,7.27,2.14,10.19c1.86,2.74,3.98,5.52,6.43,7.75
			c2.69,2.45,5.8,4.05,9.45,4.46c3.39,0.38,6.9-0.11,10.26-0.58c12.88-1.79,25.34-6.88,35.86-14.5c6.01-4.35,11.41-9.45,15.99-15.29
			c1.05-1.34,0.94-3.77-1.1-4.18c-16.58-3.27-37.63-7.85-43.35-26.33c-1.33-4.31-1.4-8.75,0.14-13.01c0.46-1.27-0.52-2.74-1.75-3.08
			C923.9,158.4,922.68,159.25,922.21,160.53L922.21,160.53z"/>
	</g>
</g>
<g>
	<g>
		<path d="M284.79,183.78c-2.51-1.73-5.88-1.39-8.4,0.14c-2.82,1.72-4.33,4.77-5.07,7.89c-0.7,2.94-1.06,6.01-1.4,9.02
			c-0.33,2.83-0.53,5.68-0.46,8.52c0.13,5.51,1.23,11.29,4.57,15.81c3.91,5.29,9.98,7.85,16.27,9.11
			c12.37,2.49,25.51,0.43,36.53-5.71c2.73-1.52,5.58-3.28,7.81-5.48c2.56-2.53,3.34-5.74,3.65-9.22c0.53-5.8,0.9-12.09-1.09-17.67
			c-2.28-6.4-7.44-10.33-13.9-11.98c-6.13-1.56-12.61-1.45-18.56-3.75c-1.26-0.49-2.74,0.54-3.08,1.75
			c-0.39,1.41,0.48,2.59,1.75,3.08c4.7,1.81,9.76,2.15,14.69,2.96c4.51,0.75,9.27,1.91,12.28,5.63c3.06,3.8,3.38,9.13,3.28,13.79
			c-0.06,2.63-0.09,5.42-0.61,8.01c-0.53,2.68-2.12,4.22-4.28,5.75c-8.96,6.36-20.01,9.45-30.97,8.81
			c-5.31-0.31-11.11-1.34-15.67-4.21c-4.03-2.53-6.22-6.7-7.14-11.27c-1.05-5.29-0.55-10.91,0.21-16.2c0.4-2.79,0.62-5.98,2.04-8.48
			c1.01-1.79,3.19-3.25,5.03-1.99c1.11,0.77,2.77,0.21,3.42-0.9C286.42,185.97,285.91,184.55,284.79,183.78L284.79,183.78z"/>
	</g>
</g>
<g>
	<g>
		<path class="st0" d="M87.48,215.9c-1.54,5.88,3.7,11.39,9.4,11.77c1.6,0.11,3.25-0.32,4.63-1.13c1.13-0.66,1.63-2.28,0.9-3.42
			c-0.73-1.13-2.22-1.61-3.42-0.9c-0.15,0.09-0.3,0.16-0.45,0.24c-0.38,0.2,0.63-0.23,0.02-0.01c-0.27,0.1-0.55,0.16-0.83,0.22
			c-0.43,0.1,0.72-0.06,0.06-0.01c-0.16,0.01-0.32,0.02-0.49,0.02c-0.14,0-0.28-0.01-0.43-0.01c-0.23-0.02-0.67-0.15,0.12,0.03
			c-0.32-0.07-0.65-0.12-0.96-0.22c-0.12-0.04-0.24-0.07-0.36-0.11c-0.21-0.07-0.68-0.36,0.01,0.02c-0.56-0.31-1.09-0.63-1.64-0.96
			c0.66,0.39,0.18,0.14,0.01-0.01c-0.1-0.08-0.19-0.17-0.28-0.25c-0.25-0.23-0.47-0.48-0.69-0.74c-0.28-0.32,0.38,0.54,0.01,0.01
			c-0.07-0.1-0.14-0.21-0.21-0.31c-0.18-0.28-0.33-0.57-0.47-0.87c-0.2-0.41,0.2,0.55,0.07,0.14c-0.05-0.15-0.11-0.31-0.15-0.46
			c-0.04-0.16-0.08-0.31-0.11-0.47c-0.13-0.64,0.03,0.5,0,0.06c-0.02-0.29-0.03-0.57-0.01-0.86c0.04-0.66-0.11,0.48-0.02,0.05
			c0.04-0.17,0.07-0.33,0.11-0.5c0.33-1.26-0.42-2.77-1.75-3.08C89.25,213.86,87.83,214.55,87.48,215.9L87.48,215.9z"/>
	</g>
</g>
<g>
	<g>
		<path class="st0" d="M92.51,198.7c-5.51,4.61-6.18,12.58-5.12,19.21c0.6,3.78,2.22,7.46,5.37,9.78c2.8,2.06,6.98,2.8,10.02,0.79
			c3.2-2.12,4.81-6.73,2.53-10.09c-1.8-2.65-6.13-0.15-4.32,2.52c0.53,0.78,0.55,1.38,0.03,2.33c-0.51,0.93-1.28,1.37-2.35,1.43
			c-3.07,0.14-5.1-2.9-5.88-5.48c-1.64-5.48-1.46-13.02,3.25-16.96c1.04-0.87,0.89-2.64,0-3.54
			C95.02,197.67,93.55,197.83,92.51,198.7L92.51,198.7z"/>
	</g>
</g>
<g>
	<g>
		<path d="M174.47,228.56c0.06-2.02,1.28-3.79,3.11-4.94c1.94-1.22,4.38-1.8,6.51-1.45c5.97,0.97,9.85,6.83,12.21,11.87
			c0.57,1.22,2.33,1.53,3.42,0.9c1.25-0.73,1.47-2.19,0.9-3.42c-3.18-6.77-8.81-13.69-16.79-14.38
			c-6.78-0.59-14.16,4.23-14.36,11.43C169.38,231.78,174.38,231.78,174.47,228.56L174.47,228.56z"/>
	</g>
</g>
<g>
	<g>
		<path d="M95.42,238.74c0.7-0.51,1.45-0.95,2.24-1.32c0.1-0.05,0.21-0.1,0.32-0.14c-0.33,0.14-0.37,0.16-0.12,0.05
			c0.22-0.08,0.43-0.16,0.65-0.24c0.41-0.14,0.83-0.25,1.25-0.35c0.2-0.05,0.4-0.09,0.59-0.12c0.11-0.02,0.23-0.04,0.34-0.06
			c0.28-0.04,0.23-0.04-0.15,0.02c0.12-0.09,0.54-0.05,0.69-0.06c0.2-0.01,0.4-0.02,0.61-0.03c0.43-0.01,0.87,0,1.3,0.03
			c0.12,0.01,0.23,0.02,0.35,0.03c0.28,0.03,0.23,0.02-0.15-0.03c0.21-0.02,0.48,0.08,0.68,0.12c1.28,0.24,2.76-0.36,3.08-1.75
			c0.28-1.23-0.37-2.81-1.75-3.08c-4.3-0.82-8.89,0.01-12.47,2.6c-0.54,0.39-0.97,0.83-1.15,1.49c-0.16,0.6-0.09,1.4,0.25,1.93
			C92.67,238.89,94.29,239.56,95.42,238.74L95.42,238.74z"/>
	</g>
</g>
<g>
	<g>
		<path d="M178.03,233.25c0.22-0.15,0.45-0.27,0.68-0.39c0.37-0.19-0.6,0.22-0.19,0.08c0.1-0.03,0.21-0.07,0.31-0.1
			c0.21-0.06,0.43-0.11,0.64-0.15c0.44-0.09-0.71,0.05-0.17,0.03c0.11,0,0.22-0.01,0.33-0.02c0.24-0.01,0.48,0,0.72,0.02
			c0.23,0.02,0.55,0.14-0.22-0.04c0.11,0.02,0.22,0.04,0.33,0.06c0.24,0.05,0.47,0.11,0.7,0.19c0.12,0.04,0.25,0.09,0.37,0.13
			c0.39,0.14-0.58-0.27-0.18-0.08c0.43,0.21,0.81,0.45,1.21,0.7c0.16,0.1-0.54-0.44-0.11-0.08c0.08,0.07,0.17,0.15,0.25,0.22
			c0.16,0.15,0.32,0.31,0.46,0.48c0.34,0.39-0.05-0.16-0.12-0.16c0.05,0.01,0.19,0.27,0.22,0.32c0.13,0.2,0.24,0.41,0.35,0.62
			c0.2,0.39-0.22-0.61-0.08-0.19c0.03,0.11,0.07,0.21,0.11,0.31c0.08,0.25,0.13,0.51,0.17,0.76c0.09,0.58,0.67,1.21,1.15,1.49
			c0.54,0.31,1.33,0.45,1.93,0.25c0.6-0.2,1.19-0.57,1.49-1.15c0.34-0.63,0.36-1.22,0.25-1.93c-0.39-2.63-2.47-4.96-4.85-6.02
			c-2.63-1.17-5.77-1.33-8.26,0.31c-1.09,0.72-1.66,2.24-0.9,3.42C175.31,233.44,176.87,234.02,178.03,233.25L178.03,233.25z"/>
	</g>
</g>
<g>
	<g>
		<path d="M302.29,214.68c-1.87-0.83-2.8-2.14-3.27-4.14c-0.44-1.88-0.26-3.94,0.46-5.84c1.69-4.49,6.39-7.92,11.14-8.62
			c4.93-0.73,10.32,1.41,13.36,5.37c1.48,1.93,2.54,4.54,1.62,6.95c-0.83,2.16-2.99,3.59-4.98,4.57
			c-6.07,3.02-13.61,3.18-20.05,1.41c-3.11-0.86-4.43,3.97-1.33,4.82c7.55,2.08,15.87,1.67,23.06-1.52
			c2.97-1.32,5.93-3.43,7.44-6.39c1.73-3.38,1.4-7.15-0.28-10.48c-3.17-6.26-10.54-10.09-17.44-9.85
			c-6.82,0.23-13.47,4.35-16.54,10.49c-2.85,5.7-2.31,14.64,4.29,17.55c1.23,0.54,2.68,0.36,3.42-0.9
			C303.81,217.04,303.53,215.22,302.29,214.68L302.29,214.68z"/>
	</g>
</g>
<g>
	<g>
		<path d="M305.91,204.8c-0.16,2.52,1.73,4.49,3.93,5.36c2,0.78,4.64,0.4,6.06-1.31c0.42-0.5,0.76-1.09,0.73-1.77
			c-0.03-0.69-0.28-1.25-0.73-1.77c-2.51-2.89-6.99-4.06-10.6-2.74c-0.62,0.23-1.15,0.56-1.49,1.15c-0.31,0.54-0.45,1.33-0.25,1.93
			c0.39,1.2,1.76,2.23,3.08,1.75c0.48-0.18,0.97-0.3,1.48-0.38c-0.22,0.03-0.44,0.06-0.66,0.09c0.66-0.09,1.33-0.09,2-0.01
			c-0.22-0.03-0.44-0.06-0.66-0.09c0.7,0.1,1.39,0.28,2.04,0.56c-0.2-0.08-0.4-0.17-0.6-0.25c0.49,0.21,0.95,0.47,1.39,0.77
			c0.45,0.32-0.42-0.37-0.09-0.07c0.09,0.08,0.18,0.15,0.27,0.23c0.2,0.19,0.39,0.38,0.57,0.59c0-1.18,0-2.36,0-3.54
			c-0.07,0.09-0.15,0.17-0.23,0.25c-0.17,0.16-0.41,0.21,0.25-0.18c-0.17,0.1-0.32,0.2-0.5,0.28c0.2-0.08,0.4-0.17,0.6-0.25
			c-0.23,0.09-0.47,0.15-0.71,0.19c0.22-0.03,0.44-0.06,0.66-0.09c-0.31,0.04-0.61,0.03-0.92,0c0.22,0.03,0.44,0.06,0.66,0.09
			c-0.34-0.05-0.67-0.14-0.99-0.27c0.2,0.08,0.4,0.17,0.6,0.25c-0.21-0.09-0.42-0.19-0.61-0.31c-0.07-0.05-0.14-0.1-0.21-0.14
			c0.7,0.44,0.36,0.29,0.18,0.12c-0.08-0.08-0.16-0.16-0.24-0.24c-0.15-0.17-0.23-0.43,0.18,0.25c-0.12-0.19-0.23-0.37-0.32-0.57
			c0.08,0.2,0.17,0.4,0.25,0.6c-0.08-0.21-0.14-0.42-0.17-0.64c0.03,0.22,0.06,0.44,0.09,0.66c-0.02-0.17-0.02-0.34-0.01-0.51
			c0.08-1.31-1.21-2.56-2.5-2.5C306.98,202.37,306,203.4,305.91,204.8L305.91,204.8z"/>
	</g>
</g>
<g>
	<g>
		<path d="M490.59,216.68c3.22,0,3.22-5,0-5C487.37,211.68,487.37,216.68,490.59,216.68L490.59,216.68z"/>
	</g>
</g>
<g>
	<g>
		<path d="M577.92,205.66c0.03,0.03,0.06,0.07,0.09,0.1c-0.13-0.17-0.26-0.34-0.39-0.51c0.07,0.09,0.12,0.18,0.16,0.28
			c-0.08-0.2-0.17-0.4-0.25-0.6c0.04,0.11,0.07,0.21,0.09,0.33c-0.03-0.22-0.06-0.44-0.09-0.66c0.02,0.14,0.01,0.27,0,0.4
			c0.03-0.22,0.06-0.44,0.09-0.66c-0.02,0.16-0.07,0.31-0.13,0.46c0.08-0.2,0.17-0.4,0.25-0.6c-0.08,0.17-0.17,0.34-0.29,0.49
			c0.13-0.17,0.26-0.34,0.39-0.51c-0.12,0.15-0.25,0.28-0.4,0.4c0.17-0.13,0.34-0.26,0.51-0.39c-0.13,0.1-0.27,0.18-0.42,0.24
			c0.2-0.08,0.4-0.17,0.6-0.25c-0.12,0.05-0.24,0.08-0.36,0.1c0.22-0.03,0.44-0.06,0.66-0.09c-0.11,0.01-0.23,0.02-0.34,0
			c0.22,0.03,0.44,0.06,0.66,0.09c-0.11-0.01-0.21-0.04-0.31-0.08c0.2,0.08,0.4,0.17,0.6,0.25c-0.11-0.05-0.21-0.11-0.31-0.18
			c0.17,0.13,0.34,0.26,0.51,0.39c-0.08-0.06-0.15-0.13-0.21-0.21c0.13,0.17,0.26,0.34,0.39,0.51c-0.07-0.09-0.13-0.19-0.17-0.3
			c0.08,0.2,0.17,0.4,0.25,0.6c-0.05-0.12-0.08-0.24-0.1-0.37c0.03,0.22,0.06,0.44,0.09,0.66c-0.02-0.17-0.02-0.34,0-0.51
			c-0.03,0.22-0.06,0.44-0.09,0.66c0.03-0.2,0.08-0.38,0.16-0.57c-0.08,0.2-0.17,0.4-0.25,0.6c0.07-0.17,0.17-0.33,0.28-0.48
			c-0.13,0.17-0.26,0.34-0.39,0.51c0.09-0.12,0.2-0.23,0.31-0.32c-0.17,0.13-0.34,0.26-0.51,0.39c0.1-0.08,0.21-0.14,0.32-0.19
			c-0.2,0.08-0.4,0.17-0.6,0.25c0.11-0.05,0.22-0.08,0.33-0.09c-0.22,0.03-0.44,0.06-0.66,0.09c0.11-0.01,0.22-0.01,0.33,0
			c-0.22-0.03-0.44-0.06-0.66-0.09c0.04,0.01,0.08,0.01,0.12,0.02c0.65,0.15,1.34,0.09,1.93-0.25c0.29-0.16,0.53-0.37,0.7-0.64
			c0.22-0.24,0.37-0.52,0.45-0.85c0.15-0.64,0.11-1.36-0.25-1.93c-0.34-0.53-0.86-1.01-1.49-1.15c-0.28-0.06-0.58-0.1-0.87-0.12
			c-0.08-0.01-0.16,0-0.24,0.01c-0.68,0.07-1.01,0.15-1.62,0.44c-0.66,0.31-1.12,0.86-1.54,1.43c-0.09,0.13-0.17,0.26-0.24,0.4
			c-0.15,0.33-0.32,0.67-0.4,1.02c-0.04,0.17-0.06,0.35-0.08,0.53c-0.02,0.18-0.06,0.37-0.06,0.56c-0.01,0.36,0.05,0.74,0.13,1.09
			c0.08,0.34,0.22,0.67,0.4,0.97c0.13,0.23,0.32,0.45,0.49,0.65c0.05,0.06,0.1,0.12,0.16,0.17c0.48,0.43,0.87,0.65,1.47,0.87
			c0.35,0.13,0.73,0.17,1.1,0.17c0.37,0,0.75-0.04,1.11-0.16c0.26-0.09,0.52-0.21,0.77-0.32c0.08-0.04,0.15-0.08,0.22-0.12
			c0.64-0.42,1.14-0.92,1.55-1.57c0.05-0.08,0.1-0.16,0.14-0.25c0.12-0.27,0.25-0.54,0.34-0.83c0.12-0.37,0.17-0.78,0.17-1.16
			c0.01-1.01-0.4-1.95-1.09-2.67c-0.23-0.24-0.49-0.42-0.8-0.52c-0.3-0.16-0.62-0.23-0.96-0.22c-0.34-0.01-0.67,0.06-0.96,0.22
			c-0.31,0.1-0.58,0.27-0.8,0.52c-0.44,0.48-0.76,1.1-0.73,1.77C577.22,204.57,577.45,205.17,577.92,205.66L577.92,205.66z"/>
	</g>
</g>
<g>
	<g>
		<path d="M664.86,246.45c3.57-1.88,7.9-0.61,11.03,1.57c3.68,2.56,6.18,6.57,8.58,10.26c1.75,2.69,6.08,0.18,4.32-2.52
			c-3.02-4.64-6.21-9.43-10.97-12.45c-4.6-2.91-10.56-3.77-15.48-1.17C659.49,243.64,662.02,247.96,664.86,246.45L664.86,246.45z"/>
	</g>
</g>
<g>
	<g>
		<path d="M670.59,256.68c3.22,0,3.22-5,0-5C667.37,251.68,667.37,256.68,670.59,256.68L670.59,256.68z"/>
	</g>
</g>
<g>
	<g>
		<path d="M672.94,256.68c3.22,0,3.22-5,0-5C669.72,251.68,669.72,256.68,672.94,256.68L672.94,256.68z"/>
	</g>
</g>
<g>
	<g>
		<path d="M668.24,256.68c3.22,0,3.22-5,0-5C665.02,251.68,665.01,256.68,668.24,256.68L668.24,256.68z"/>
	</g>
</g>
<g>
	<g>
		<path d="M746.16,236.96c-1.68-4.66-0.55-10.01,3.19-13.44c3.63-3.32,9.39-3.9,13.66-1.68c1.2,0.62,2.72,0.31,3.42-0.9
			c0.66-1.12,0.31-2.79-0.9-3.42c-6.27-3.27-14.15-2.4-19.5,2.27c-5.08,4.44-6.98,12.19-4.7,18.5c0.46,1.27,1.7,2.12,3.08,1.75
			C745.64,239.7,746.63,238.23,746.16,236.96L746.16,236.96z"/>
	</g>
</g>
<g>
	<g>
		<path d="M755.33,234.7c-0.09,0.39-0.16,0.82-0.13,1.22c0.03,0.3,0.06,0.61,0.13,0.91c0.08,0.29,0.21,0.56,0.33,0.83
			c0.33,0.75,0.94,1.3,1.58,1.77c0.66,0.48,1.51,0.71,2.32,0.74c0.99,0.03,1.91-0.37,2.59-1.09c0.87-0.93,1.32-2.13,1.33-3.4
			c0.01-0.53-0.07-1.08-0.22-1.59c-0.15-0.51-0.36-1.03-0.66-1.47c-0.45-0.66-0.91-1.13-1.57-1.57c-0.68-0.45-1.42-0.6-2.21-0.68
			c-0.6-0.06-1.36,0.32-1.77,0.73c-0.43,0.43-0.76,1.15-0.73,1.77c0.03,0.65,0.24,1.32,0.73,1.77c0.17,0.13,0.34,0.26,0.51,0.39
			c0.39,0.23,0.81,0.34,1.26,0.34c0.03,0,0.07,0.01,0.1,0.01c-0.22-0.03-0.44-0.06-0.66-0.09c0.18,0.03,0.35,0.08,0.51,0.15
			c-0.2-0.08-0.4-0.17-0.6-0.25c0.16,0.07,0.31,0.16,0.45,0.26c-0.17-0.13-0.34-0.26-0.51-0.39c0.16,0.13,0.31,0.27,0.44,0.44
			c-0.13-0.17-0.26-0.34-0.39-0.51c0.16,0.21,0.29,0.43,0.4,0.67c-0.08-0.2-0.17-0.4-0.25-0.6c0.11,0.26,0.18,0.53,0.22,0.81
			c-0.03-0.22-0.06-0.44-0.09-0.66c0.04,0.28,0.04,0.56,0,0.83c0.03-0.22,0.06-0.44,0.09-0.66c-0.03,0.22-0.09,0.44-0.18,0.65
			c0.08-0.2,0.17-0.4,0.25-0.6c-0.08,0.18-0.17,0.34-0.29,0.49c0.13-0.17,0.26-0.34,0.39-0.51c-0.1,0.13-0.22,0.24-0.34,0.34
			c0.17-0.13,0.34-0.26,0.51-0.39c-0.04,0.03-0.08,0.06-0.12,0.09c0.2-0.08,0.4-0.17,0.6-0.25c-0.06,0.02-0.12,0.03-0.18,0.04
			c0.22-0.03,0.44-0.06,0.66-0.09c-0.14,0.02-0.28,0.02-0.43,0c0.22,0.03,0.44,0.06,0.66,0.09c-0.16-0.02-0.32-0.07-0.47-0.13
			c0.2,0.08,0.4,0.17,0.6,0.25c-0.15-0.07-0.29-0.15-0.43-0.25c0.17,0.13,0.34,0.26,0.51,0.39c-0.15-0.12-0.28-0.25-0.4-0.39
			c0.13,0.17,0.26,0.34,0.39,0.51c-0.11-0.15-0.21-0.31-0.28-0.48c0.08,0.2,0.17,0.4,0.25,0.6c-0.05-0.14-0.09-0.27-0.12-0.41
			c0.03,0.22,0.06,0.44,0.09,0.66c-0.02-0.14-0.02-0.28-0.01-0.43c-0.03,0.22-0.06,0.44-0.09,0.66c0.01-0.06,0.02-0.12,0.03-0.19
			c0.15-0.65,0.09-1.34-0.25-1.93c-0.3-0.52-0.9-1.01-1.49-1.15c-0.64-0.15-1.36-0.11-1.93,0.25
			C755.94,233.55,755.48,234.06,755.33,234.7L755.33,234.7z"/>
	</g>
</g>
<g>
	<g>
		<path d="M838.68,207.12c0,6.67,0,13.33,0,20c0,3.22,5,3.22,5,0c0-6.67,0-13.33,0-20C843.68,203.9,838.68,203.9,838.68,207.12
			L838.68,207.12z"/>
	</g>
</g>
<g>
	<g>
		<path d="M945.03,197.68c-3.17,6.88-2.58,15.31,2.04,21.43c0.81,1.08,2.16,1.64,3.42,0.9c1.06-0.62,1.72-2.34,0.9-3.42
			c-1.8-2.38-2.98-5.22-3.27-7.91c-0.08-0.77-0.12-1.54-0.11-2.31c0.01-0.39,0.02-0.77,0.05-1.16c0.01-0.19,0.03-0.38,0.05-0.58
			c0.05-0.47-0.05,0.27,0.02-0.2c0.21-1.43,0.7-3.12,1.21-4.23c0.56-1.23,0.35-2.69-0.9-3.42
			C947.37,196.15,945.6,196.45,945.03,197.68L945.03,197.68z"/>
	</g>
</g>
<g>
	<g>
		<path d="M885.88,341.38c3.22,0,3.22-5,0-5C882.67,336.38,882.66,341.38,885.88,341.38L885.88,341.38z"/>
	</g>
</g>
<g>
	<g>
		<path d="M79.03,232.76c3.16-6.52,8.33-11.87,14.86-15.06c6.53-3.2,14.6-3.86,20.98,0.04c3,1.84,5.48,4.6,6.65,7.95
			c0.44,1.28,1.71,2.12,3.08,1.75c1.24-0.34,2.19-1.79,1.75-3.08c-2.78-8.01-10.28-13.19-18.55-14.16
			c-8.94-1.05-17.95,2.83-24.54,8.71c-3.54,3.16-6.47,7.06-8.54,11.33c-0.59,1.21-0.33,2.7,0.9,3.42
			C76.71,234.29,78.44,233.98,79.03,232.76L79.03,232.76z"/>
	</g>
</g>
<g>
	<g>
		<path d="M975.82,199.17c-5.76-2.22-12.82,0.48-15.86,5.77c-0.84,1.46-0.03,3.16,1.49,3.67c3.59,1.2,7.53,2.2,11.11,0.44
			c3.01-1.48,5.2-5.15,4.07-8.49c-0.42-1.24-1.74-2.18-3.08-1.75c-1.23,0.4-2.2,1.75-1.75,3.08c0.04,0.11,0.07,0.23,0.11,0.35
			c0.17,0.51,0.01-0.34,0.01-0.06c0,0.11,0.01,0.23,0.01,0.35c0.01,0.47-0.1,0.06,0.03-0.06c-0.03,0.03-0.2,0.65-0.19,0.67
			c0.13-0.3,0.16-0.36,0.08-0.19c-0.02,0.05-0.05,0.11-0.08,0.16c-0.06,0.11-0.12,0.21-0.18,0.31c-0.07,0.12-0.15,0.28-0.25,0.38
			c0.13-0.11,0.25-0.3,0.04-0.08c-0.2,0.2-0.4,0.39-0.6,0.58c-0.24,0.23,0.35-0.22,0.06-0.05c-0.13,0.08-0.26,0.18-0.39,0.25
			c-0.11,0.06-0.22,0.12-0.33,0.18c-0.4,0.23,0.28-0.08,0,0.01c-0.25,0.08-0.48,0.16-0.73,0.22c-0.17,0.04-0.53,0.1-0.16,0.05
			c-0.16,0.02-0.32,0.03-0.48,0.04c-0.36,0.02-0.72,0.02-1.07,0c-0.16-0.01-0.32-0.03-0.48-0.04c-0.18-0.02-0.16-0.01,0.07,0.02
			c-0.08-0.01-0.16-0.03-0.24-0.04c-1.45-0.26-2.85-0.7-4.24-1.16c0.5,1.22,1,2.45,1.49,3.67c0.15-0.26,0.3-0.51,0.47-0.75
			c0.02-0.03,0.37-0.47,0.12-0.17c-0.25,0.29,0.09-0.1,0.14-0.16c0.19-0.22,0.4-0.43,0.61-0.64c0.16-0.15,0.45-0.52,0.66-0.58
			c-0.22,0.07-0.32,0.24-0.02,0.02c0.12-0.09,0.24-0.17,0.36-0.25c0.25-0.16,0.5-0.32,0.76-0.46c0.26-0.14,0.52-0.27,0.79-0.4
			c0.42-0.2-0.32,0.11-0.03,0.01c0.14-0.05,0.28-0.1,0.42-0.15c0.56-0.19,1.13-0.34,1.71-0.45c0.11-0.02,0.24-0.02,0.35-0.06
			c-0.57,0.18-0.18,0.03,0.04,0.01c0.26-0.02,0.53-0.03,0.79-0.03c0.29,0,0.59,0.01,0.88,0.03c0.12,0.01,0.33-0.01,0.44,0.04
			c-0.41-0.2-0.32-0.04-0.06,0c0.61,0.11,1.2,0.29,1.78,0.51c1.22,0.47,2.8-0.52,3.08-1.75
			C977.89,200.82,977.13,199.68,975.82,199.17L975.82,199.17z"/>
	</g>
</g>
<g>
	<g>
		<path d="M822.22,218.31c-2.24-1.15-4.76-1.42-7.21-0.83c-2.43,0.59-4.48,2.06-5.93,4.07c-0.72,1-0.27,2.93,0.9,3.42
			c2.01,0.85,4.09,1.36,6.3,1.33c2.2-0.03,4.28-0.56,6.27-1.48c1.19-0.55,1.58-2.36,0.9-3.42c-0.79-1.23-2.14-1.48-3.42-0.9
			c-0.1,0.05-0.21,0.09-0.31,0.14c0.34-0.14,0.38-0.16,0.13-0.06c-0.16,0.06-0.32,0.12-0.48,0.17c-0.37,0.13-0.76,0.23-1.14,0.32
			c-0.22,0.05-0.44,0.09-0.66,0.13c-0.11,0.02-0.22,0.04-0.33,0.05c0.11-0.02,0.22-0.03,0.33-0.05c-0.03,0.09-1.14,0.08-1.27,0.08
			c-0.4,0.01-0.79-0.01-1.19-0.04c-0.08-0.01-0.17-0.01-0.25-0.02c-0.28-0.03-0.22-0.02,0.16,0.03c-0.08,0.05-0.48-0.08-0.59-0.1
			c-0.39-0.07-0.77-0.17-1.15-0.28c-0.19-0.06-0.38-0.12-0.56-0.18c-0.14-0.05-0.87-0.34-0.19-0.06c0.3,1.14,0.6,2.28,0.9,3.42
			c0.25-0.35-0.3,0.36-0.1,0.13c0.06-0.07,0.12-0.14,0.18-0.21c0.13-0.15,0.28-0.3,0.42-0.44c0.16-0.15,0.76-0.58,0.11-0.13
			c0.17-0.11,0.33-0.24,0.5-0.35c0.17-0.11,0.35-0.21,0.53-0.31c0.11-0.06,0.72-0.33,0.31-0.17c-0.41,0.17,0.22-0.08,0.34-0.12
			c0.22-0.07,0.43-0.13,0.65-0.19c0.2-0.05,0.4-0.08,0.6-0.12c0.31-0.06-0.57,0.06-0.26,0.03c0.11-0.01,0.23-0.02,0.34-0.03
			c0.41-0.03,0.81-0.03,1.22,0.01c0.08,0.01,0.54,0.06,0.07,0c-0.47-0.06-0.01,0.01,0.07,0.02c0.2,0.04,0.4,0.09,0.59,0.14
			c0.2,0.06,0.39,0.13,0.58,0.19c0.32,0.11-0.16-0.06-0.22-0.1c0.11,0.07,0.25,0.12,0.37,0.18c1.16,0.6,2.77,0.34,3.42-0.9
			C823.72,220.58,823.46,218.95,822.22,218.31L822.22,218.31z"/>
	</g>
</g>
<g>
	<g>
		<path d="M352.24,220.51c11.93-9.61,25.67-17.03,40.23-21.79c4.22-1.38,8.52-2.53,12.86-3.48c3.14-0.68,1.81-5.5-1.33-4.82
			c-15.68,3.4-30.75,9.69-44.19,18.45c-3.84,2.5-7.54,5.22-11.11,8.1c-1.05,0.85-0.88,2.65,0,3.54
			C349.75,221.55,351.19,221.36,352.24,220.51L352.24,220.51z"/>
	</g>
</g>
<g>
	<g>
		<path d="M348.79,210.36c1.47,0.2,2.91,0.55,4.31,1.04c0.18,0.07,0.37,0.13,0.55,0.2c0.15,0.06,0.49,0.2,0.16,0.06
			c0.36,0.15,0.71,0.32,1.06,0.49c0.66,0.33,1.31,0.69,1.94,1.08c0.3,0.19,0.59,0.38,0.88,0.58c0.16,0.11,0.32,0.22,0.48,0.34
			c0.07,0.05,0.48,0.37,0.14,0.11c0.58,0.46,1.14,0.95,1.67,1.47c0.53,0.52,1.03,1.06,1.51,1.63c0.03,0.04,0.42,0.51,0.24,0.29
			c-0.16-0.21,0.24,0.32,0.23,0.31c0.23,0.32,0.45,0.64,0.66,0.97c0.71,1.09,2.25,1.65,3.42,0.9c1.09-0.7,1.66-2.25,0.9-3.42
			c-3.75-5.77-9.95-9.92-16.81-10.86c-1.29-0.18-2.75,0.31-3.08,1.75C346.78,208.46,347.41,210.17,348.79,210.36L348.79,210.36z"/>
	</g>
</g>
<g>
	<g>
		<path d="M363.92,203.17c1.98,2.33,3.97,4.67,5.95,7c0.39,0.46,1.18,0.73,1.77,0.73c0.61,0,1.35-0.27,1.77-0.73
			c0.44-0.48,0.76-1.1,0.73-1.77c-0.03-0.69-0.28-1.24-0.73-1.77c-1.98-2.33-3.97-4.67-5.95-7c-0.39-0.46-1.18-0.73-1.77-0.73
			c-0.61,0-1.35,0.27-1.77,0.73c-0.44,0.48-0.76,1.1-0.73,1.77C363.22,202.09,363.47,202.64,363.92,203.17L363.92,203.17z"/>
	</g>
</g>
<g>
	<g>
		<path d="M376.24,194.91c1.85,4.93,5.16,9.11,9.58,11.99c1.1,0.72,2.81,0.26,3.42-0.9c0.66-1.25,0.27-2.66-0.9-3.42
			c-0.23-0.15-0.46-0.3-0.68-0.46c-0.2-0.14-0.51-0.3-0.66-0.49c0.15,0.18,0.34,0.27,0.05,0.03c-0.11-0.09-0.21-0.17-0.32-0.26
			c-0.21-0.18-0.42-0.36-0.62-0.54c-0.81-0.74-1.57-1.54-2.26-2.4c-0.07-0.08-0.13-0.18-0.21-0.26c0.45,0.49,0.08,0.1-0.01-0.02
			c-0.16-0.22-0.32-0.45-0.48-0.67c-0.29-0.43-0.57-0.87-0.83-1.33c-0.28-0.48-0.53-0.96-0.77-1.46c-0.12-0.25-0.23-0.5-0.34-0.75
			c-0.13-0.29,0.19,0.5,0.03,0.06c-0.06-0.15-0.12-0.31-0.18-0.46c-0.46-1.22-1.71-2.19-3.08-1.75
			C376.79,192.22,375.74,193.6,376.24,194.91L376.24,194.91z"/>
	</g>
</g>
<g>
	<g>
		<path d="M385.62,188.29c0,6.6,4.87,12.84,11.33,14.32c1.27,0.29,2.77-0.39,3.08-1.75c0.29-1.27-0.38-2.76-1.75-3.08
			c-0.33-0.08-0.66-0.16-0.98-0.27c-0.16-0.05-0.32-0.11-0.48-0.17c-0.08-0.03-0.53-0.23-0.17-0.06c0.37,0.17-0.17-0.08-0.24-0.12
			c-0.13-0.06-0.25-0.12-0.38-0.19c-0.3-0.16-0.59-0.33-0.87-0.51c-0.14-0.09-0.28-0.19-0.42-0.28c-0.16-0.11-0.58-0.27-0.04-0.01
			c-0.25-0.11-0.51-0.42-0.71-0.6c-0.48-0.44-0.92-0.92-1.33-1.42c-0.32-0.38,0.28,0.41-0.02-0.03c-0.08-0.12-0.16-0.23-0.24-0.35
			c-0.17-0.26-0.34-0.52-0.49-0.79c-0.17-0.29-0.33-0.59-0.47-0.9c-0.04-0.08-0.07-0.15-0.11-0.23c-0.08-0.17-0.05-0.1,0.08,0.21
			c-0.09-0.11-0.14-0.35-0.18-0.47c-0.21-0.58-0.38-1.18-0.49-1.79c-0.03-0.16-0.04-0.34-0.08-0.5c0.16,0.65,0.03,0.18,0.01-0.01
			c-0.03-0.34-0.04-0.68-0.04-1.02c0-1.31-1.15-2.56-2.5-2.5C386.77,185.85,385.62,186.89,385.62,188.29L385.62,188.29z"/>
	</g>
</g>
<g>
	<g>
		<path d="M399.14,189.1c2.45,3.06,4.91,6.11,7.36,9.17c0.38,0.47,1.2,0.73,1.77,0.73c0.61,0,1.35-0.27,1.77-0.73
			c0.44-0.48,0.76-1.1,0.73-1.77c-0.03-0.7-0.29-1.22-0.73-1.77c-2.45-3.06-4.91-6.11-7.36-9.17c-0.38-0.47-1.2-0.73-1.77-0.73
			c-0.61,0-1.35,0.27-1.77,0.73c-0.44,0.48-0.76,1.1-0.73,1.77C398.44,188.03,398.71,188.55,399.14,189.1L399.14,189.1z"/>
	</g>
</g>
<g>
	<g>
		<path d="M409.41,194.32c3.22,0,3.22-5,0-5C406.19,189.32,406.19,194.32,409.41,194.32L409.41,194.32z"/>
	</g>
</g>
</svg>
