<?xml version="1.0" encoding="utf-8"?>
<!-- Generator: Adobe Illustrator 16.0.0, SVG Export Plug-In . SVG Version: 6.00 Build 0)  -->
<!DOCTYPE svg PUBLIC "-//W3C//DTD SVG 1.1//EN" "http://www.w3.org/Graphics/SVG/1.1/DTD/svg11.dtd">
<svg version="1.1" id="Ebene_1" xmlns="http://www.w3.org/2000/svg" xmlns:xlink="http://www.w3.org/1999/xlink" x="0px" y="0px"
	 width="595.274px" height="841.888px" viewBox="0 0 595.274 841.888" enable-background="new 0 0 595.274 841.888"
	 xml:space="preserve">
<g>
	<defs>
		<rect id="SVGID_1_" y="3.405" width="595.274" height="676.3"/>
	</defs>
	<clipPath id="SVGID_2_">
		<use xlink:href="#SVGID_1_"  overflow="visible"/>
	</clipPath>
	<path clip-path="url(#SVGID_2_)" fill-rule="evenodd" clip-rule="evenodd" fill="#D40000" d="M263.808,136.202
		c-0.364-0.094-1.985,0.164-3.598,0.562c-2.652,0.657-3.551,0.735-9.314,0.789c-3.511,0.035-9.242,0.032-12.73-0.019
		c-6.156-0.078-6.356-0.071-6.941,0.515c-0.329,0.332-0.849,0.782-1.149,0.985c-0.489,0.336-0.805,0.679-0.183,1.242
		c3.789,3.437,11.996,6.145,17.367,6.5c1.168,0.078,5.847-0.898,7.825-1.656c2.437-0.938,4.066-1.774,5.769-3.231
		c1.45-1.297,2.758-3.074,3.211-4.363C264.464,136.397,264.456,136.362,263.808,136.202 M420.058,105.727
		c-2.527-0.078-4.985,0.559-7.731,1.896c-5.765,2.808-7.082,4.44-10.152,12.472l-24.575,64.226
		c-1.484,3.879-2.148,6.691-0.918,9.157c0.438,0.883,1.5,3.094,2.355,4.906c1.766,3.747,3.68,5.524,8.181,7.161l18.677,6.793
		c2.972,1.082,10.91-1.79,12.488-5.633l29.493-71.738c2.212-5.383,2.259-8.505-0.108-13.942c-2.431-5.606-3.556-6.766-11.22-9.867
		c-5.246-2.126-11.242-5.212-16.493-5.431H420.058z M369.13,76.679c-2.063,0.184-4.294,0.86-6.579,2.024
		c-2.184,1.113-4.488,2.523-5.129,3.129c-1.539,1.464-4.224,6.918-6.47,13.171l-23.855,60.633c-1,2.543-2.255,7.485-1.427,10.692
		c1.691,7.004,3.771,10.028,5.415,10.704l20.695,8.851c2.306,0.946,3.985,0.868,7.649-0.339c6.32-2.082,10.673-9.2,12.48-13.723
		l26.998-67.547c0.953-2.391,1-7.754-0.074-10.172c-0.469-1.06-1.27-2.892-1.773-4.06c-2.648-6.269-21.856-13.839-27.936-13.363
		H369.13z M217.696,68.237c-4.278-0.012-7.926,0.992-13.262,2.68c-18.076,5.711-20.744,7.477-24.834,16.43
		c-8.437,18.478-20.044,46.987-21.813,53.585c-0.793,2.965-1.832,5.383-2.301,5.383c-0.469,0-1.14,1.148-1.492,2.551
		c-0.638,2.555-4.914,14.391-7.446,20.618c-0.739,1.825-1.024,4.774-0.637,6.552c1.121,5.101,8.802,19.278,15.989,29.516
		c7.754,11.052,36.276,46.788,46.424,58.171l7.107,7.974l12.278,3.761c6.754,2.075,16.613,5.098,21.915,6.72
		c16.891,5.171,14.375,5.632-16.071,2.945l-8.689-0.774l-24.087,526.409l225.097-1.552l-36.536-525.393
		c-0.938-0.355-6.859-0.058-13.165,0.664c-19.708,2.254-31.303,2.879-31.303,1.684c0-0.61,2.172-1.645,4.824-2.289
		c2.649-0.649,13.493-3.856,24.096-7.133c10.603-3.282,20.388-6.212,21.738-6.509c1.356-0.296,3.071-2,3.813-3.793
		s5.371-8.23,10.281-14.293c11.138-13.762,12.72-17.021,13.29-27.299l0.457-8.23l-6.082,2.828c-4.88,2.266-9.372,3.695-14.305,2.07
		l-21.701-7.152c-2.641-0.871-10.286-8.368-12.676-14.138c-2.344-5.661-2.719-6.019-5.263-5.05
		c-7.223,2.746-19.906-0.157-35.768-8.193c-4.508-2.285-8.691-7.93-10.927-14.734c-1.339-4.087-1.39-4.115-5.558-3
		c-6.199,1.651-12.349,1.121-17.544-1.533c-2.527-1.289-7.195-3.101-10.372-4.031c-4.223-1.23-7.211-3.183-11.117-7.242l-5.349-5.56
		l-3.727,2.18c-7.218,4.224-13.747,5.107-21.567,2.911c-3.856-1.082-8.816-2.927-11.017-4.105c-5.593-2.996-6.867-2.739-6.867,1.41
		c0,3.711,2.86,7.098,7.146,8.457c1.284,0.406,4.418,2.25,6.957,4.094c2.539,1.847,6.144,4.078,8.015,4.962
		c3.356,1.585,9.06,4.816,16.033,9.074c1.961,1.199,8.339,4.937,14.176,8.312c5.836,3.38,10.774,6.262,10.969,6.407
		c0.505,0.372,3.462,13.063,5.402,23.177c0.9,4.676,2.373,12.079,3.279,16.447c0.906,4.367,1.64,9.211,1.621,10.769l-17.071-45.642
		l-65.46-28.389l-0.352-12.406c-0.195-6.822,0.108-13.251,0.68-14.294c0.57-1.039,3.824-4.922,7.226-8.621l6.184-6.74l17.165-0.168
		c15.349-0.152,18.02-0.48,25.342-3.109c13.972-5.016,22.622-12.392,28.438-24.251c3.516-7.164,3.551-7.109-7.14-10.484
		c-3.744-1.181-20.432-6.79-37.092-12.47c-21.357-7.281-30.237-10.142-37.362-10.165H217.696z M320.248,46.712
		c-2.008,0.125-4.062,0.645-5.898,1.543c-5.56,2.723-7.353,4.369-9.317,8.572c-2.625,5.64-4.832,11.695-6.802,16.915
		c-1.289,3.433-2.588,6.683-2.89,7.226c-0.297,0.543-0.543,1.074-0.543,1.188c0,0.301,3.801,1.898,7.363,3.082
		c4.892,1.629,6.586,2.746,7.879,5.23c1.927,3.693,1.605,5.322-2.891,14.743c-6.117,12.818-16.753,22.388-30.926,27.833
		c-1.137,0.438-1.278,0.876-1.278,4.142c0.469,2.969,0.934,12.063,7.547,14.543l18.731,7.025c0.602,0.222,1.172,0.753,3.727,0.625
		c3.406-0.176,7.242-1.852,9.617-4.188c2.72-2.219,4.985-4.669,6.306-8.036l27.553-70.136c1.062-2.703,1.457-4.152,1.453-7.907
		c-0.005-2.543-0.271-5.094-0.591-5.668c-0.319-0.574-1.086-2.188-1.694-3.59c-0.606-1.402-1.699-3.09-2.431-3.746
		c-1.897-1.715-3.476-2.484-10.961-5.329c-3.47-1.321-6.477-2.496-8.337-3.258C324.213,46.845,322.256,46.583,320.248,46.712
		 M262.917,36.603c-3.016,0.395-5.379,1.73-8.164,2.836c-4.228,2.508-5.754,5.07-7.566,8.937c-0.443,0.938-2.552,6-4.779,11.912
		c-0.5,1.332-0.91,2.793-0.91,3.238c0,0.883,1.93,1.84,6.801,3.379c1.716,0.539,3.63,1.195,4.251,1.453
		c0.625,0.258,2.539,0.902,4.254,1.437c1.715,0.533,3.699,1.192,4.406,1.461c0.707,0.27,4.805,1.591,9.066,3.068l14.064,4.867
		c1.625,0.562,1.715,0.461,2.598-1.332c0.792-1.61,1.675-3.758,3.32-8.083c0.239-0.625,0.91-2.277,1.492-3.672
		c0.73-1.754,1.048-3.852,1.023-6.801c-0.039-3.586-0.299-4.812-1.741-7.669c-3.024-6.004-3.032-5.953-8.993-8.476
		c-6.184-2.618-12.493-6.348-19.126-6.555H262.917z"/>
</g>
<rect x="153.166" y="381.518" fill-rule="evenodd" clip-rule="evenodd" width="255.134" height="52.917"/>
<rect x="153.166" y="381.518" fill="none" stroke="#000000" stroke-width="19.844" width="255.134" height="52.917"/>
<polygon fill="#FFFFFF" points="184.003,393.167 174.44,393.167 174.44,433.232 162.564,433.232 162.642,393.167 153.174,393.167 
	153.174,382.637 184.003,382.637 "/>
<path fill="#FFFFFF" d="M205.941,413.403l-3.765-15.423l-3.782,15.423H205.941z M222.239,433.232h-12.438l-2.578-10.438h-10.11
	l-2.579,10.438h-12.437l14.125-50.596h11.813L222.239,433.232z"/>
<g>
	<defs>
		<rect id="SVGID_3_" y="3.405" width="595.274" height="676.3"/>
	</defs>
	<clipPath id="SVGID_4_">
		<use xlink:href="#SVGID_3_"  overflow="visible"/>
	</clipPath>
	<path clip-path="url(#SVGID_4_)" fill="#FFFFFF" d="M262.3,386.417l-4.579,7.875c-3.586-1.875-7.336-2.813-11.25-2.813
		c-2.137,0-3.981,1.059-5.532,3.172c-1.555,2.117-2.625,4.391-3.219,6.829c-0.586,2.43-0.875,4.688-0.875,6.782
		c0,1.812,0.129,3.562,0.391,5.25c0.27,1.687,0.739,3.39,1.407,5.109c0.675,1.711,1.695,3.091,3.062,4.142
		c1.363,1.043,3.008,1.562,4.938,1.562c1.875,0,3.128-0.108,3.765-0.327v-15.501h11.486v23.048
		c-4.231,1.926-9.373,2.892-15.423,2.892c-3.637,0-6.875-0.735-9.719-2.204c-2.837-1.477-5.095-3.473-6.782-5.984
		c-1.688-2.521-2.961-5.333-3.813-8.438c-0.855-3.102-1.281-6.395-1.281-9.875c0-4.438,0.773-8.626,2.328-12.564
		c1.551-3.937,4.016-7.227,7.391-9.875c3.375-2.657,7.333-3.984,11.876-3.984c2.675,0,5.5,0.432,8.469,1.296
		C257.917,383.664,260.37,384.867,262.3,386.417"/>
	<path clip-path="url(#SVGID_4_)" fill="#FFFFFF" d="M318.201,408.184c0-1.989-0.086-3.704-0.25-5.141
		c-0.156-1.445-0.492-3.039-1-4.782c-0.5-1.738-1.398-3.085-2.688-4.046c-1.283-0.97-2.887-1.454-4.813-1.454h-4.578v30.345h4.173
		c1.819,0,3.358-0.476,4.608-1.437c1.259-0.97,2.196-2.255,2.813-3.86c0.625-1.602,1.066-3.18,1.328-4.735
		C318.062,411.524,318.201,409.894,318.201,408.184 M330.248,407.699c0,4.438-0.75,8.547-2.25,12.329
		c-1.5,3.774-3.897,6.917-7.188,9.438c-3.292,2.512-7.214,3.766-11.765,3.766H292.98v-50.596h16.784
		c7.125,0,12.316,2.32,15.578,6.953C328.611,394.215,330.248,400.254,330.248,407.699"/>
	<polygon clip-path="url(#SVGID_4_)" fill="#FFFFFF" points="367.004,433.232 336.814,433.232 336.814,382.636 366.129,382.636 
		366.129,392.918 348.784,392.918 348.784,401.762 362.113,401.762 362.113,412.2 348.784,412.2 348.784,422.794 367.004,422.794 	
		"/>
	<path clip-path="url(#SVGID_4_)" fill="#FFFFFF" d="M395.377,399.184c0-2.301-0.562-3.958-1.688-4.969
		c-1.125-1.02-2.869-1.531-5.219-1.531h-3.142v13.812c1.228,0.375,2.22,0.562,2.97,0.562c2.194,0,3.926-0.75,5.187-2.25
		C394.744,403.308,395.377,401.434,395.377,399.184 M408.3,433.232h-10.032l-12.938-17.673v17.673h-11.953v-50.596h13.234
		c3.969,0,7.438,0.484,10.407,1.453c2.969,0.961,5.457,2.726,7.469,5.297c2.008,2.575,3.016,5.868,3.016,9.876
		c0,3.273-0.887,6.289-2.655,9.046c-1.774,2.75-4.152,4.689-7.142,5.814l10.595,13.734V433.232z"/>
	
		<rect x="184.64" y="513.998" clip-path="url(#SVGID_4_)" fill-rule="evenodd" clip-rule="evenodd" width="255.134" height="63.343"/>
	
		<rect x="184.64" y="513.998" clip-path="url(#SVGID_4_)" fill="none" stroke="#000000" stroke-width="19.844" width="255.134" height="63.343"/>
	<path clip-path="url(#SVGID_4_)" fill="#FFFFFF" d="M213.806,551.617l-4.61-18.86l-4.609,18.86H213.806z M233.744,575.868h-15.22
		l-3.14-12.766h-12.375l-3.141,12.766h-15.221l17.284-61.878h14.437L233.744,575.868z"/>
	<path clip-path="url(#SVGID_4_)" fill="#FFFFFF" d="M266.319,534.226c0-2.813-0.687-4.837-2.062-6.079
		c-1.367-1.25-3.492-1.875-6.375-1.875h-3.829v16.891c1.5,0.462,2.707,0.688,3.625,0.688c2.688,0,4.798-0.914,6.329-2.75
		C265.546,539.269,266.319,536.976,266.319,534.226 M282.133,575.868h-12.267l-15.813-21.61v21.61h-14.641V513.99h16.203
		c4.852,0,9.095,0.594,12.72,1.782c3.633,1.179,6.68,3.339,9.142,6.484c2.457,3.137,3.687,7.156,3.687,12.062
		c0,4-1.086,7.688-3.25,11.063c-2.156,3.367-5.071,5.734-8.735,7.109l12.954,16.798V575.868z"/>
	<path clip-path="url(#SVGID_4_)" fill="#FFFFFF" d="M317.182,556.617c0-1.238-0.215-2.316-0.641-3.234
		c-0.431-0.914-0.953-1.602-1.578-2.062c-0.617-0.457-1.435-0.801-2.453-1.031c-1.012-0.227-1.914-0.375-2.703-0.438
		c-0.782-0.07-1.763-0.109-2.938-0.109h-3.234v15.22c2.095,0.461,3.236,0.688,3.438,0.688c3.071,0,5.524-0.75,7.36-2.25
		C316.264,561.891,317.182,559.628,317.182,556.617 M314.041,531.866c0-3.728-1.734-5.594-5.203-5.594h-5.204v12.376h3.234
		C311.649,538.648,314.041,536.39,314.041,531.866 M331.808,556.617c0,6.617-2.392,11.728-7.173,15.329
		c-4.773,3.594-10.563,5.391-17.375,5.391c-3.531,0-9.622-0.979-18.267-2.937v-60.41h19.845c5.82,0,10.551,1.344,14.188,4.032
		c3.633,2.687,5.454,6.843,5.454,12.469c0,2.367-0.789,4.793-2.36,7.282c-1.574,2.48-3.476,4.015-5.703,4.609
		c3.281,0.522,6,2.194,8.156,5.016C330.729,550.21,331.808,553.285,331.808,556.617"/>
	<polygon clip-path="url(#SVGID_4_)" fill="#FFFFFF" points="375.118,575.868 338.194,575.868 338.194,513.99 374.04,513.99 
		374.04,526.568 352.819,526.568 352.819,537.366 369.134,537.366 369.134,550.132 352.819,550.132 352.819,563.102 
		375.118,563.102 	"/>
	<rect x="382.005" y="513.99" clip-path="url(#SVGID_4_)" fill="#FFFFFF" width="14.532" height="61.88"/>
	<polygon clip-path="url(#SVGID_4_)" fill="#FFFFFF" points="439.781,526.865 428.093,526.865 428.093,575.868 413.546,575.868 
		413.654,526.865 402.062,526.865 402.062,513.99 439.781,513.99 	"/>
	
		<rect x="157.971" y="448.775" clip-path="url(#SVGID_4_)" fill-rule="evenodd" clip-rule="evenodd" fill="#D40000" width="255.128" height="48.077"/>
	
		<rect x="157.971" y="448.775" clip-path="url(#SVGID_4_)" fill="none" stroke="#D40000" stroke-width="19.844" width="255.128" height="48.077"/>
	<path clip-path="url(#SVGID_4_)" fill="#FFFFFF" d="M186.89,483.148c0,4.181-1.524,7.509-4.563,9.985
		c-3.031,2.48-6.685,3.72-10.954,3.72c-1.992,0-4.152-0.497-6.484-1.485c-2.336-1-4.352-2.227-6.047-3.688l4.812-7.578
		c3.25,2.386,5.848,3.578,7.798,3.578c1.405,0,2.546-0.41,3.421-1.235c0.875-0.832,1.312-1.953,1.312-3.358
		c0-0.875-0.452-1.75-1.358-2.626c-0.898-0.875-2.027-1.688-3.392-2.438c-1.355-0.75-2.808-1.66-4.359-2.734
		c-1.555-1.07-3.012-2.176-4.375-3.312c-1.355-1.145-2.484-2.602-3.391-4.375c-0.898-1.77-1.343-3.696-1.343-5.782
		c0-3.988,1.367-7.16,4.109-9.516c2.75-2.352,6.164-3.532,10.251-3.532c2.52,0,5.066,0.649,7.641,1.939
		c2.57,1.28,4.632,2.944,6.187,4.983l-6.047,5.393c-0.867-0.971-1.992-1.782-3.375-2.439c-1.386-0.656-2.735-0.984-4.048-0.984
		c-1.074,0-2.023,0.375-2.843,1.125c-0.825,0.75-1.235,1.664-1.235,2.734c0,1.262,0.629,2.43,1.891,3.5
		c1.258,1.064,2.773,2.071,4.548,3.017c1.781,0.949,3.566,2.016,5.359,3.203c1.801,1.188,3.332,2.805,4.594,4.845
		C186.257,478.128,186.89,480.484,186.89,483.148"/>
	<path clip-path="url(#SVGID_4_)" fill="#FFFFFF" d="M214.759,472.804c0-1.551-0.029-2.883-0.078-4
		c-0.043-1.114-0.201-2.383-0.469-3.813c-0.262-1.437-0.637-2.612-1.126-3.53c-0.491-0.927-1.171-1.72-2.046-2.376
		c-0.868-0.655-1.935-0.983-3.204-0.983c-1.262,0-2.328,0.328-3.203,0.983c-0.875,0.656-1.559,1.449-2.047,2.376
		c-0.481,0.918-0.856,2.094-1.125,3.53c-0.262,1.431-0.418,2.699-0.469,3.813c-0.055,1.117-0.078,2.453-0.078,4.016
		c0,1.555,0.023,2.887,0.078,4c0.051,1.118,0.207,2.403,0.469,3.86c0.269,1.461,0.644,2.636,1.125,3.531
		c0.488,0.897,1.172,1.672,2.047,2.328c0.875,0.655,1.941,0.983,3.203,0.983c1.269,0,2.336-0.328,3.204-0.983
		c0.875-0.656,1.555-1.441,2.046-2.359c0.489-0.926,0.864-2.118,1.126-3.578c0.268-1.457,0.426-2.743,0.469-3.86
		C214.73,475.628,214.759,474.316,214.759,472.804 M224.665,464.726c0.633,2.668,0.953,5.367,0.953,8.094
		c0,2.72-0.32,5.414-0.953,8.078c-0.625,2.668-1.594,5.231-2.906,7.688c-1.313,2.449-3.172,4.438-5.578,5.969
		c-2.408,1.531-5.188,2.298-8.345,2.298c-3.156,0-5.938-0.767-8.344-2.298c-2.398-1.531-4.25-3.52-5.562-5.969
		c-1.313-2.457-2.289-5.021-2.923-7.688c-0.625-2.664-0.938-5.358-0.938-8.078c0-2.727,0.313-5.426,0.938-8.094
		c0.634-2.665,1.61-5.224,2.923-7.672c1.312-2.458,3.164-4.454,5.562-5.985c2.406-1.53,5.188-2.298,8.344-2.298
		c3.157,0,5.937,0.768,8.345,2.298c2.406,1.531,4.265,3.527,5.578,5.985C223.071,459.502,224.04,462.061,224.665,464.726"/>
	<path clip-path="url(#SVGID_4_)" fill="#FFFFFF" d="M260.065,495.758h-31.11v-7.5c4.563-8.884,9.906-18.524,16.031-28.924h-14.578
		v-9.469h28.267v7.641c-6.219,10.157-11.758,19.728-16.611,28.705h18.001V495.758z"/>
	<rect x="264.577" y="449.866" clip-path="url(#SVGID_4_)" fill="#FFFFFF" width="10.782" height="45.895"/>
	<path clip-path="url(#SVGID_4_)" fill="#FFFFFF" d="M300.731,477.757l-3.438-13.985l-3.422,13.985H300.731z M315.514,495.758
		h-11.298l-2.328-9.469h-9.172l-2.328,9.469H279.09l12.813-45.893h10.719L315.514,495.758z"/>
	<polygon clip-path="url(#SVGID_4_)" fill="#FFFFFF" points="343.038,495.758 319.506,495.758 319.506,449.866 330.068,449.866 
		330.068,486.43 343.038,486.43 	"/>
	<polygon clip-path="url(#SVGID_4_)" fill="#FFFFFF" points="374.845,495.758 347.452,495.758 347.452,449.866 374.048,449.866 
		374.048,459.194 358.312,459.194 358.312,467.194 370.406,467.194 370.406,476.68 358.312,476.68 358.312,486.29 374.845,486.29 	
		"/>
	<path clip-path="url(#SVGID_4_)" fill="#FFFFFF" d="M413.104,495.758h-9.985l-12.234-27.173l0.297,1.969
		c0.187,1.355,0.281,2.668,0.281,3.938v21.267h-10.845v-45.893h11.72l7.938,18.063c0.539,1.168,1.003,2.508,1.39,4.016l0.578,2.25
		v-24.329h10.86V495.758z"/>
	
		<rect x="173.991" y="329.797" clip-path="url(#SVGID_4_)" fill-rule="evenodd" clip-rule="evenodd" fill="#D40000" width="255.129" height="33.932"/>
	
		<rect x="173.991" y="329.797" clip-path="url(#SVGID_4_)" fill="none" stroke="#D40000" stroke-width="19.844" width="255.129" height="33.932"/>
	<polygon clip-path="url(#SVGID_4_)" fill="#FFFFFF" points="196.605,362.959 188.948,362.959 188.948,349.442 181.651,349.442 
		181.651,362.959 173.995,362.959 173.995,330.566 181.651,330.566 181.651,342.802 188.948,342.802 188.948,330.566 
		196.605,330.566 	"/>
	<polygon clip-path="url(#SVGID_4_)" fill="#FFFFFF" points="221.435,362.959 202.105,362.959 202.105,330.566 220.872,330.566 
		220.872,337.145 209.763,337.145 209.763,342.802 218.294,342.802 218.294,349.489 209.763,349.489 209.763,356.271 
		221.435,356.271 	"/>
	<path clip-path="url(#SVGID_4_)" fill="#FFFFFF" d="M239.591,341.161c0-1.469-0.36-2.523-1.078-3.172
		c-0.719-0.656-1.836-0.984-3.344-0.984h-2v8.828c0.789,0.242,1.426,0.359,1.906,0.359c1.395,0,2.492-0.476,3.298-1.437
		C239.186,343.798,239.591,342.598,239.591,341.161 M247.874,362.959h-6.422l-8.282-11.313v11.313h-7.656v-32.393h8.484
		c2.531,0,4.742,0.313,6.642,0.938c1.905,0.618,3.5,1.747,4.781,3.391c1.289,1.649,1.937,3.75,1.937,6.313
		c0,2.094-0.57,4.027-1.703,5.797c-1.125,1.761-2.648,3-4.563,3.719l6.782,8.797V362.959z"/>
	<path clip-path="url(#SVGID_4_)" fill="#FFFFFF" d="M264.32,350.255l-2.423-9.86l-2.406,9.86H264.32z M274.758,362.959h-7.97
		l-1.64-6.688h-6.485l-1.641,6.688h-7.969l9.048-32.393h7.547L274.758,362.959z"/>
	<path clip-path="url(#SVGID_4_)" fill="#FFFFFF" d="M300.903,350.052c0,1.75-0.199,3.39-0.594,4.921
		c-0.387,1.524-1,2.962-1.845,4.314c-0.834,1.355-2.042,2.434-3.624,3.234c-1.575,0.801-3.423,1.203-5.548,1.203
		s-3.981-0.402-5.563-1.203c-1.574-0.8-2.781-1.879-3.625-3.234c-0.835-1.352-1.45-2.79-1.844-4.314
		c-0.399-1.531-0.593-3.171-0.593-4.921v-19.486h7.672v19.486c0,2.468,0.312,4.273,0.937,5.406c0.633,1.125,1.641,1.688,3.016,1.688
		s2.375-0.563,3-1.688c0.633-1.133,0.953-2.938,0.953-5.406v-19.486h7.657V350.052z"/>
	<path clip-path="url(#SVGID_4_)" fill="#FFFFFF" d="M325.265,354.068c0,2.949-1.074,5.297-3.22,7.047
		c-2.137,1.742-4.717,2.609-7.734,2.609c-1.407,0-2.934-0.351-4.579-1.046c-1.648-0.707-3.071-1.571-4.266-2.594l3.391-5.344
		c2.301,1.68,4.133,2.516,5.5,2.516c1,0,1.804-0.289,2.423-0.875c0.613-0.582,0.922-1.367,0.922-2.36
		c0-0.625-0.32-1.242-0.953-1.859c-0.638-0.614-1.435-1.188-2.392-1.719c-0.96-0.531-1.983-1.172-3.078-1.922
		c-1.093-0.758-2.125-1.539-3.093-2.344c-0.961-0.801-1.758-1.829-2.392-3.079c-0.625-1.257-0.938-2.625-0.938-4.093
		c0-2.813,0.961-5.047,2.889-6.703c1.94-1.665,4.351-2.501,7.236-2.501c1.782,0,3.579,0.454,5.392,1.36
		c1.82,0.906,3.281,2.086,4.375,3.531l-4.266,3.797c-0.617-0.687-1.414-1.258-2.391-1.719c-0.98-0.468-1.934-0.703-2.86-0.703
		c-0.75,0-1.418,0.266-2,0.797c-0.585,0.531-0.875,1.18-0.875,1.938c0,0.886,0.442,1.711,1.329,2.468
		c0.893,0.75,1.968,1.461,3.219,2.125c1.25,0.668,2.506,1.423,3.781,2.266c1.268,0.845,2.348,1.985,3.234,3.423
		C324.814,350.521,325.265,352.185,325.265,354.068"/>
	<path clip-path="url(#SVGID_4_)" fill="#FFFFFF" d="M364.149,362.959h-21.955v-5.297c3.226-6.27,7-13.071,11.313-20.407h-10.281
		v-6.689h19.953v5.407c-4.387,7.157-8.293,13.907-11.719,20.251h12.688V362.959z"/>
	<path clip-path="url(#SVGID_4_)" fill="#FFFFFF" d="M390.982,350.052c0,1.75-0.2,3.39-0.594,4.921
		c-0.387,1.524-1,2.962-1.845,4.314c-0.836,1.355-2.043,2.434-3.625,3.234c-1.574,0.801-3.422,1.203-5.547,1.203
		s-3.98-0.402-5.562-1.203c-1.575-0.8-2.782-1.879-3.625-3.234c-0.836-1.352-1.45-2.79-1.844-4.314
		c-0.398-1.531-0.595-3.171-0.595-4.921v-19.486h7.673v19.486c0,2.468,0.312,4.273,0.938,5.406c0.633,1.125,1.641,1.688,3.016,1.688
		s2.375-0.563,3-1.688c0.631-1.133,0.953-2.938,0.953-5.406v-19.486h7.657V350.052z"/>
	<path clip-path="url(#SVGID_4_)" fill="#FFFFFF" d="M429.124,362.959h-7.672v-14.188l0.422-3.907l-6.125,18.095h-5.906
		l-6.126-18.095l0.47,3.907v14.188h-7.657v-32.393h8.329l7.188,19.689c0.207,0.586,0.379,1.289,0.516,2.11l0.265,1.297l0.25-1.297
		c0.134-0.821,0.306-1.524,0.517-2.11l7.142-19.689h8.39V362.959z"/>
</g>
<rect x="119.418" y="727.477" fill-rule="evenodd" clip-rule="evenodd" width="425.221" height="49.271"/>
<rect x="119.418" y="727.477" fill="none" stroke="#000000" stroke-width="19.844" width="425.221" height="49.271"/>
<g>
	<defs>
		<rect id="SVGID_5_" width="595.274" height="829.888"/>
	</defs>
	<clipPath id="SVGID_6_">
		<use xlink:href="#SVGID_5_"  overflow="visible"/>
	</clipPath>
	<path clip-path="url(#SVGID_6_)" fill="#FFFFFF" d="M158.764,727.477l-13.923,49.268h-11.5l-13.923-49.268h12.515l6.017,26.596
		c0.363,1.511,0.754,3.828,1.172,6.953c0.469-3.282,0.859-5.599,1.172-6.953l6.031-26.596H158.764z"/>
	<rect x="162.408" y="727.477" clip-path="url(#SVGID_6_)" fill="#FFFFFF" width="11.579" height="49.271"/>
	<polygon clip-path="url(#SVGID_6_)" fill="#FFFFFF" points="206.777,776.745 181.511,776.745 181.511,727.477 192.854,727.477 
		192.854,766.729 206.777,766.729 	"/>
	<polygon clip-path="url(#SVGID_6_)" fill="#FFFFFF" points="236.717,776.745 211.45,776.745 211.45,727.477 222.794,727.477 
		222.794,766.729 236.717,766.729 	"/>
	<polygon clip-path="url(#SVGID_6_)" fill="#FFFFFF" points="270.871,776.745 241.462,776.745 241.462,727.477 270.012,727.477 
		270.012,737.478 253.12,737.478 253.12,746.087 266.104,746.087 266.104,756.259 253.12,756.259 253.12,766.574 270.871,766.574 	
		"/>
	<path clip-path="url(#SVGID_6_)" fill="#FFFFFF" d="M311.946,776.745h-10.718l-13.142-29.172l0.312,2.108
		c0.207,1.459,0.313,2.871,0.313,4.234v22.829h-11.657v-49.268h12.594l8.532,19.392c0.57,1.25,1.066,2.684,1.484,4.297l0.625,2.438
		v-26.127h11.656V776.745z"/>
	<path clip-path="url(#SVGID_6_)" fill="#FFFFFF" d="M355.953,727.477l-13.923,49.268h-11.501l-13.923-49.268h12.517l6.017,26.596
		c0.363,1.511,0.753,3.828,1.172,6.953c0.469-3.282,0.859-5.599,1.171-6.953l6.032-26.596H355.953z"/>
	<rect x="359.598" y="727.477" clip-path="url(#SVGID_6_)" fill="#FFFFFF" width="11.579" height="49.271"/>
	<polygon clip-path="url(#SVGID_6_)" fill="#FFFFFF" points="408.187,776.745 378.778,776.745 378.778,727.477 407.326,727.477 
		407.326,737.478 390.436,737.478 390.436,746.087 403.42,746.087 403.42,756.259 390.436,756.259 390.436,766.574 408.187,766.574 
			"/>
	<path clip-path="url(#SVGID_6_)" fill="#FFFFFF" d="M435.809,743.587c0-2.239-0.555-3.852-1.656-4.845c-1.094-1-2.79-1.5-5.079-1.5
		h-3.046v13.455c1.195,0.367,2.16,0.546,2.89,0.546c2.134,0,3.817-0.729,5.048-2.188
		C435.191,747.598,435.809,745.775,435.809,743.587 M448.388,776.745h-9.767l-12.594-17.204v17.204H414.37v-49.268h12.907
		c3.852,0,7.227,0.47,10.125,1.406c2.895,0.938,5.316,2.664,7.266,5.172c1.957,2.501,2.938,5.704,2.938,9.61
		c0,3.18-0.86,6.11-2.578,8.797c-1.719,2.688-4.04,4.578-6.954,5.673l10.313,13.375V776.745z"/>
	<polygon clip-path="url(#SVGID_6_)" fill="#FFFFFF" points="479.229,737.728 469.915,737.728 469.915,776.745 458.353,776.745 
		458.431,737.728 449.196,737.728 449.196,727.477 479.229,727.477 	"/>
	<polygon clip-path="url(#SVGID_6_)" fill="#FFFFFF" points="513.422,776.745 484.014,776.745 484.014,727.477 512.562,727.477 
		512.562,737.478 495.671,737.478 495.671,746.087 508.656,746.087 508.656,756.259 495.671,756.259 495.671,766.574 
		513.422,766.574 	"/>
	<polygon clip-path="url(#SVGID_6_)" fill="#FFFFFF" points="544.639,776.745 519.371,776.745 519.371,727.477 530.716,727.477 
		530.716,766.729 544.639,766.729 	"/>
	
		<rect x="166.517" y="611.624" clip-path="url(#SVGID_6_)" fill-rule="evenodd" clip-rule="evenodd" fill="#D40000" width="255.13" height="34.998"/>
	
		<rect x="166.517" y="611.624" clip-path="url(#SVGID_6_)" fill="none" stroke="#D40000" stroke-width="19.844" width="255.13" height="34.998"/>
	<path clip-path="url(#SVGID_6_)" fill="#FFFFFF" d="M181.737,623.073c0-1.593-0.39-2.738-1.172-3.437
		c-0.773-0.707-1.976-1.063-3.609-1.063H174.8v9.548c0.842,0.262,1.522,0.391,2.046,0.391c1.519,0,2.711-0.516,3.579-1.547
		C181.3,625.925,181.737,624.628,181.737,623.073 M190.675,646.622h-6.938l-8.937-12.219v12.219h-8.283V611.62h9.173
		c2.738,0,5.133,0.336,7.188,1c2.051,0.668,3.769,1.891,5.156,3.672c1.395,1.781,2.094,4.06,2.094,6.828
		c0,2.263-0.617,4.345-1.844,6.251c-1.219,1.907-2.867,3.25-4.937,4.032l7.328,9.5V646.622z"/>
	<polygon clip-path="url(#SVGID_6_)" fill="#FFFFFF" points="215.403,646.622 194.512,646.622 194.512,611.62 214.778,611.62 
		214.778,618.73 202.793,618.73 202.793,624.839 212.013,624.839 212.013,632.074 202.793,632.074 202.793,639.403 215.403,639.403 
			"/>
	<rect x="219.294" y="611.62" clip-path="url(#SVGID_6_)" fill="#FFFFFF" width="8.219" height="35.002"/>
	<path clip-path="url(#SVGID_6_)" fill="#FFFFFF" d="M257.8,646.622h-7.61l-9.329-20.72l0.219,1.5
		c0.156,1.044,0.234,2.044,0.234,3.001v16.219h-8.281V611.62h8.938l6.062,13.782c0.407,0.887,0.755,1.906,1.048,3.062l0.453,1.719
		V611.62h8.266V646.622z"/>
	<rect x="280.055" y="611.62" clip-path="url(#SVGID_6_)" fill="#FFFFFF" width="8.219" height="35.002"/>
	<path clip-path="url(#SVGID_6_)" fill="#FFFFFF" d="M318.561,646.622h-7.61l-9.328-20.72l0.219,1.5
		c0.156,1.044,0.234,2.044,0.234,3.001v16.219h-8.282V611.62h8.938l6.062,13.782c0.407,0.887,0.756,1.906,1.049,3.062l0.453,1.719
		V611.62h8.266V646.622z"/>
	<path clip-path="url(#SVGID_6_)" fill="#FFFFFF" d="M358.711,629.292c0-1.375-0.059-2.562-0.172-3.562
		c-0.117-1-0.352-2.098-0.703-3.297c-0.344-1.207-0.965-2.146-1.859-2.813c-0.887-0.664-1.996-1-3.328-1h-3.157v21.001h2.875
		c1.259,0,2.321-0.332,3.188-1c0.875-0.664,1.523-1.551,1.953-2.656c0.426-1.112,0.734-2.207,0.922-3.281
		C358.617,631.613,358.711,630.48,358.711,629.292 M367.039,628.964c0,3.074-0.521,5.918-1.562,8.531
		c-1.032,2.606-2.688,4.778-4.97,6.517c-2.273,1.742-4.984,2.609-8.142,2.609h-11.109V611.62h11.609
		c4.927,0,8.521,1.606,10.783,4.813C365.906,619.632,367.039,623.808,367.039,628.964"/>
	<polygon clip-path="url(#SVGID_6_)" fill="#FFFFFF" points="392.482,646.622 371.591,646.622 371.591,611.62 391.857,611.62 
		391.857,618.73 379.872,618.73 379.872,624.839 389.092,624.839 389.092,632.074 379.872,632.074 379.872,639.403 392.482,639.403 
			"/>
	<path clip-path="url(#SVGID_6_)" fill="#FFFFFF" d="M421.64,646.622h-7.61l-9.328-20.72l0.219,1.5
		c0.156,1.044,0.234,2.044,0.234,3.001v16.219h-8.281V611.62h8.938l6.062,13.782c0.405,0.887,0.754,1.906,1.047,3.062l0.453,1.719
		V611.62h8.266V646.622z"/>
	
		<rect x="97.28" y="664.13" clip-path="url(#SVGID_6_)" fill-rule="evenodd" clip-rule="evenodd" fill="#D40000" width="425.216" height="45.162"/>
	
		<rect x="97.28" y="664.13" clip-path="url(#SVGID_6_)" fill="none" stroke="#D40000" stroke-width="19.844" width="425.216" height="45.162"/>
	<path clip-path="url(#SVGID_6_)" fill="#FFFFFF" d="M116.159,679.248c0-2.144-0.632-3.601-1.891-4.375
		c-1.25-0.769-3.011-1.156-5.281-1.156h-1.516v11.563c1.375,0.542,2.286,0.812,2.735,0.812
		C114.175,686.092,116.159,683.811,116.159,679.248 M126.363,679.326c0,4.149-1.484,7.705-4.453,10.673
		c-2.962,2.961-6.517,4.438-10.672,4.438c-1.462,0-2.716-0.317-3.767-0.953v14.781H97.283v-43.111h11.36
		c5.289,0,9.568,1.102,12.829,3.297C124.73,670.638,126.363,674.264,126.363,679.326"/>
	<path clip-path="url(#SVGID_6_)" fill="#FFFFFF" d="M149.571,679.248c0-1.957-0.48-3.367-1.437-4.233
		c-0.961-0.863-2.438-1.298-4.438-1.298h-2.672v11.767c1.051,0.312,1.895,0.471,2.531,0.471c1.865,0,3.333-0.635,4.408-1.908
		C149.032,682.764,149.571,681.166,149.571,679.248 M160.588,708.265h-8.547l-11.017-15.048v15.048H130.82v-43.111h11.298
		c3.375,0,6.328,0.414,8.86,1.234c2.532,0.824,4.649,2.328,6.36,4.517c1.718,2.187,2.578,4.996,2.578,8.423
		c0,2.78-0.758,5.351-2.266,7.703c-1.5,2.343-3.531,3.996-6.094,4.953l9.032,11.703V708.265z"/>
	<path clip-path="url(#SVGID_6_)" fill="#FFFFFF" d="M186.995,686.717c0-1.469-0.027-2.724-0.077-3.767
		c-0.043-1.05-0.188-2.25-0.438-3.593c-0.25-1.344-0.606-2.446-1.062-3.313c-0.462-0.875-1.103-1.617-1.923-2.233
		c-0.812-0.613-1.812-0.923-3-0.923s-2.195,0.31-3.016,0.923c-0.824,0.616-1.464,1.358-1.922,2.233
		c-0.449,0.867-0.796,1.97-1.046,3.313c-0.25,1.343-0.403,2.543-0.454,3.593c-0.042,1.043-0.062,2.298-0.062,3.767
		c0,1.461,0.02,2.715,0.062,3.767c0.051,1.043,0.204,2.25,0.454,3.625c0.25,1.368,0.597,2.468,1.046,3.312
		c0.458,0.845,1.098,1.574,1.922,2.188c0.821,0.618,1.828,0.922,3.016,0.922s2.188-0.304,3-0.922
		c0.82-0.614,1.461-1.353,1.923-2.219c0.456-0.863,0.812-1.978,1.062-3.345c0.25-1.375,0.395-2.586,0.438-3.64
		C186.968,689.354,186.995,688.124,186.995,686.717 M196.293,679.123c0.594,2.5,0.891,5.032,0.891,7.595
		c0,2.555-0.297,5.086-0.891,7.595c-0.594,2.511-1.508,4.918-2.735,7.219c-1.23,2.305-2.976,4.172-5.235,5.609
		c-2.261,1.438-4.875,2.156-7.844,2.156c-2.961,0-5.57-0.719-7.829-2.156c-2.25-1.438-3.996-3.305-5.233-5.609
		c-1.232-2.301-2.142-4.708-2.735-7.219c-0.594-2.509-0.891-5.04-0.891-7.595c0-2.562,0.297-5.095,0.891-7.595
		c0.593-2.508,1.503-4.914,2.735-7.218c1.237-2.313,2.983-4.181,5.233-5.61c2.259-1.438,4.868-2.156,7.829-2.156
		c2.969,0,5.583,0.719,7.844,2.156c2.259,1.43,4.005,3.297,5.235,5.61C194.785,674.208,195.699,676.615,196.293,679.123"/>
	<path clip-path="url(#SVGID_6_)" fill="#FFFFFF" d="M222.567,694.859c0-0.864-0.152-1.614-0.453-2.25
		c-0.293-0.646-0.656-1.125-1.094-1.438c-0.429-0.321-0.996-0.562-1.703-0.72c-0.711-0.164-1.34-0.27-1.89-0.312
		c-0.543-0.052-1.227-0.078-2.047-0.078h-2.25v10.61c1.457,0.323,2.254,0.484,2.39,0.484c2.145,0,3.852-0.523,5.125-1.579
		C221.927,698.527,222.567,696.952,222.567,694.859 M220.38,677.608c0-2.594-1.211-3.892-3.625-3.892h-3.625v8.609h2.25
		C218.712,682.326,220.38,680.756,220.38,677.608 M232.756,694.859c0,4.605-1.668,8.164-5,10.672
		c-3.325,2.512-7.357,3.767-12.095,3.767c-2.469,0-6.716-0.688-12.735-2.063v-42.08h13.829c4.051,0,7.344,0.938,9.876,2.812
		c2.531,1.867,3.797,4.763,3.797,8.688c0,1.648-0.547,3.335-1.641,5.062c-1.094,1.73-2.419,2.805-3.969,3.219
		c2.281,0.367,4.171,1.526,5.672,3.486C231.998,690.381,232.756,692.527,232.756,694.859"/>
	<polygon clip-path="url(#SVGID_6_)" fill="#FFFFFF" points="259.241,708.265 237.131,708.265 237.131,665.154 247.053,665.154 
		247.053,699.499 259.241,699.499 	"/>
	<polygon clip-path="url(#SVGID_6_)" fill="#FFFFFF" points="289.125,708.265 263.405,708.265 263.405,665.154 288.375,665.154 
		288.375,673.919 273.593,673.919 273.593,681.436 284.954,681.436 284.954,690.342 273.593,690.342 273.593,699.374 
		289.125,699.374 	"/>
	<path clip-path="url(#SVGID_6_)" fill="#FFFFFF" d="M337.929,708.265h-10.203v-18.892l0.547-5.188l-8.142,24.079h-7.859
		l-8.142-24.079l0.609,5.188v18.892h-10.204v-43.111h11.094l9.579,26.205c0.27,0.78,0.5,1.719,0.688,2.812l0.344,1.703l0.344-1.703
		c0.176-1.093,0.397-2.031,0.672-2.812l9.517-26.205h11.156V708.265z"/>
	<path clip-path="url(#SVGID_6_)" fill="#FFFFFF" d="M364.898,694.859c0-0.864-0.152-1.614-0.453-2.25
		c-0.293-0.646-0.656-1.125-1.093-1.438c-0.431-0.321-0.996-0.562-1.704-0.72c-0.71-0.164-1.34-0.27-1.891-0.312
		c-0.543-0.052-1.227-0.078-2.047-0.078h-2.25v10.61c1.457,0.323,2.254,0.484,2.391,0.484c2.145,0,3.852-0.523,5.126-1.579
		C364.258,698.527,364.898,696.952,364.898,694.859 M362.711,677.608c0-2.594-1.211-3.892-3.625-3.892h-3.625v8.609h2.25
		C361.043,682.326,362.711,680.756,362.711,677.608 M375.087,694.859c0,4.605-1.668,8.164-5,10.672
		c-3.324,2.512-7.355,3.767-12.095,3.767c-2.469,0-6.716-0.688-12.735-2.063v-42.08h13.829c4.051,0,7.345,0.938,9.875,2.812
		c2.531,1.867,3.798,4.763,3.798,8.688c0,1.648-0.547,3.335-1.642,5.062c-1.092,1.73-2.418,2.805-3.967,3.219
		c2.28,0.367,4.17,1.526,5.67,3.486C374.329,690.381,375.087,692.527,375.087,694.859"/>
	<polygon clip-path="url(#SVGID_6_)" fill="#FFFFFF" points="405.26,708.265 379.54,708.265 379.54,665.154 404.51,665.154 
		404.51,673.919 389.729,673.919 389.729,681.436 401.088,681.436 401.088,690.342 389.729,690.342 389.729,699.374 405.26,699.374 
			"/>
	<path clip-path="url(#SVGID_6_)" fill="#FFFFFF" d="M437.234,708.265h-29.22v-7.047c4.283-8.345,9.297-17.396,15.048-27.157
		h-13.689v-8.907h26.55v7.188c-5.837,9.531-11.032,18.518-15.596,26.954h16.907V708.265z"/>
	<rect x="441.469" y="665.154" clip-path="url(#SVGID_6_)" fill="#FFFFFF" width="10.126" height="43.111"/>
	<path clip-path="url(#SVGID_6_)" fill="#FFFFFF" d="M477.135,679.248c0-1.957-0.48-3.367-1.438-4.233
		c-0.961-0.863-2.438-1.298-4.438-1.298h-2.672v11.767c1.051,0.312,1.895,0.471,2.53,0.471c1.864,0,3.333-0.635,4.407-1.908
		C476.596,682.764,477.135,681.166,477.135,679.248 M488.151,708.265h-8.548l-11.016-15.048v15.048h-10.204v-43.111h11.298
		c3.375,0,6.328,0.414,8.859,1.234c2.531,0.824,4.649,2.328,6.36,4.517c1.718,2.187,2.578,4.996,2.578,8.423
		c0,2.78-0.758,5.351-2.267,7.703c-1.5,2.343-3.531,3.996-6.094,4.953l9.032,11.703V708.265z"/>
	<polygon clip-path="url(#SVGID_6_)" fill="#FFFFFF" points="522.157,708.265 513.328,708.265 503.202,693.562 503.202,708.265 
		492.999,708.265 492.999,665.154 503.202,665.154 503.202,679.794 511.077,665.154 522.5,665.154 509.499,686.842 522.157,703.687 
			"/>
</g>
<g>
	<path fill="#BCBCBC" d="M206.345,804.458h3.344v6.139h0.044c0.352-0.462,0.792-0.814,1.32-1.101
		c0.484-0.264,1.122-0.418,1.738-0.418c2.134,0,3.763,1.475,3.763,4.709v6.293h-3.345v-5.919c0-1.408-0.484-2.376-1.738-2.376
		c-0.88,0-1.43,0.572-1.672,1.166c-0.088,0.22-0.11,0.506-0.11,0.748v6.381h-3.344V804.458z"/>
	<path fill="#BCBCBC" d="M221.812,815.767c0.11,1.386,1.474,2.046,3.037,2.046c1.144,0,2.068-0.153,2.97-0.439l0.44,2.266
		c-1.1,0.44-2.442,0.66-3.895,0.66c-3.652,0-5.743-2.112-5.743-5.479c0-2.729,1.694-5.743,5.435-5.743
		c3.477,0,4.797,2.707,4.797,5.369c0,0.572-0.066,1.078-0.11,1.32H221.812z M225.75,813.479c0-0.814-0.352-2.179-1.892-2.179
		c-1.408,0-1.98,1.276-2.068,2.179H225.75z"/>
	<path fill="#BCBCBC" d="M241.282,804.458v12.409c0,1.211,0.044,2.486,0.088,3.213H238.4l-0.154-1.584h-0.044
		c-0.682,1.21-1.98,1.826-3.367,1.826c-2.552,0-4.599-2.179-4.599-5.523c-0.022-3.63,2.244-5.721,4.819-5.721
		c1.32,0,2.354,0.463,2.838,1.211h0.044v-5.831H241.282z M237.938,813.875c0-0.176-0.022-0.418-0.044-0.594
		c-0.198-0.902-0.924-1.65-1.958-1.65c-1.518,0-2.31,1.364-2.31,3.059c0,1.826,0.902,2.971,2.288,2.971
		c0.968,0,1.738-0.66,1.937-1.606c0.066-0.242,0.088-0.484,0.088-0.771V813.875z"/>
	<path fill="#BCBCBC" d="M254.592,814.579c0,3.938-2.794,5.743-5.677,5.743c-3.146,0-5.567-2.068-5.567-5.545
		s2.289-5.699,5.743-5.699C252.392,809.078,254.592,811.344,254.592,814.579z M246.803,814.689c0,1.848,0.77,3.234,2.2,3.234
		c1.298,0,2.134-1.298,2.134-3.234c0-1.606-0.616-3.234-2.134-3.234C247.397,811.455,246.803,813.105,246.803,814.689z"/>
	<path fill="#BCBCBC" d="M256.659,812.752c0-1.342-0.044-2.486-0.088-3.433h2.904l0.154,1.475h0.066
		c0.44-0.683,1.541-1.717,3.323-1.717c2.2,0,3.851,1.452,3.851,4.621v6.381h-3.345v-5.963c0-1.386-0.484-2.332-1.694-2.332
		c-0.924,0-1.474,0.638-1.694,1.254c-0.088,0.198-0.132,0.528-0.132,0.836v6.205h-3.344V812.752z"/>
	<path fill="#BCBCBC" d="M273.005,806.328c0,0.924-0.704,1.672-1.804,1.672c-1.057,0-1.761-0.748-1.738-1.672
		c-0.022-0.968,0.682-1.694,1.76-1.694C272.301,804.633,272.983,805.36,273.005,806.328z M269.551,820.08v-10.76h3.344v10.76
		H269.551z"/>
	<path fill="#BCBCBC" d="M275.557,817.153c0.616,0.374,1.892,0.814,2.882,0.814c1.012,0,1.43-0.353,1.43-0.902
		s-0.33-0.813-1.584-1.232c-2.223-0.748-3.081-1.958-3.059-3.234c0-2.002,1.716-3.521,4.378-3.521c1.254,0,2.376,0.286,3.037,0.616
		l-0.594,2.311c-0.484-0.264-1.408-0.616-2.332-0.616c-0.814,0-1.276,0.33-1.276,0.88c0,0.507,0.418,0.771,1.738,1.232
		c2.046,0.704,2.904,1.738,2.926,3.322c0,2.003-1.584,3.477-4.665,3.477c-1.408,0-2.663-0.308-3.477-0.748L275.557,817.153z"/>
	<path fill="#BCBCBC" d="M288.867,806.24v3.08h2.398v2.465h-2.398v3.895c0,1.298,0.308,1.892,1.32,1.892
		c0.418,0,0.748-0.044,0.99-0.088l0.022,2.53c-0.44,0.177-1.232,0.286-2.178,0.286c-1.078,0-1.98-0.374-2.508-0.924
		c-0.616-0.638-0.924-1.672-0.924-3.19v-4.4h-1.43v-2.465h1.43v-2.332L288.867,806.24z"/>
	<path fill="#BCBCBC" d="M298.283,813.193v2.222h-5.765v-2.222H298.283z"/>
	<path fill="#BCBCBC" d="M303.738,806.328c0,0.924-0.704,1.672-1.805,1.672c-1.056,0-1.76-0.748-1.738-1.672
		c-0.021-0.968,0.683-1.694,1.761-1.694S303.716,805.36,303.738,806.328z M300.283,820.08v-10.76h3.345v10.76H300.283z"/>
	<path fill="#BCBCBC" d="M306.312,812.752c0-1.342-0.044-2.486-0.088-3.433h2.904l0.154,1.475h0.066
		c0.439-0.683,1.54-1.717,3.322-1.717c2.2,0,3.851,1.452,3.851,4.621v6.381h-3.345v-5.963c0-1.386-0.484-2.332-1.694-2.332
		c-0.924,0-1.474,0.638-1.694,1.254c-0.088,0.198-0.132,0.528-0.132,0.836v6.205h-3.345V812.752z"/>
	<path fill="#BCBCBC" d="M322.812,806.24v3.08h2.398v2.465h-2.398v3.895c0,1.298,0.308,1.892,1.32,1.892
		c0.418,0,0.748-0.044,0.99-0.088l0.021,2.53c-0.44,0.177-1.232,0.286-2.179,0.286c-1.078,0-1.979-0.374-2.508-0.924
		c-0.616-0.638-0.924-1.672-0.924-3.19v-4.4h-1.431v-2.465h1.431v-2.332L322.812,806.24z"/>
	<path fill="#BCBCBC" d="M329.632,815.767c0.109,1.386,1.474,2.046,3.036,2.046c1.145,0,2.068-0.153,2.971-0.439l0.439,2.266
		c-1.1,0.44-2.442,0.66-3.895,0.66c-3.652,0-5.742-2.112-5.742-5.479c0-2.729,1.693-5.743,5.435-5.743
		c3.477,0,4.797,2.707,4.797,5.369c0,0.572-0.066,1.078-0.11,1.32H329.632z M333.57,813.479c0-0.814-0.353-2.179-1.893-2.179
		c-1.408,0-1.98,1.276-2.068,2.179H333.57z"/>
	<path fill="#BCBCBC" d="M338.673,812.863c0-1.584-0.044-2.618-0.088-3.543h2.883l0.11,1.98h0.088
		c0.55-1.562,1.87-2.223,2.904-2.223c0.308,0,0.462,0,0.704,0.044v3.146c-0.242-0.044-0.528-0.088-0.902-0.088
		c-1.232,0-2.068,0.66-2.288,1.694c-0.044,0.221-0.066,0.484-0.066,0.748v5.457h-3.345V812.863z"/>
	<path fill="#BCBCBC" d="M347.032,812.752c0-1.342-0.044-2.486-0.088-3.433h2.904l0.154,1.475h0.066
		c0.439-0.683,1.54-1.717,3.322-1.717c2.2,0,3.851,1.452,3.851,4.621v6.381h-3.345v-5.963c0-1.386-0.484-2.332-1.694-2.332
		c-0.924,0-1.474,0.638-1.694,1.254c-0.088,0.198-0.132,0.528-0.132,0.836v6.205h-3.345V812.752z"/>
	<path fill="#BCBCBC" d="M366.042,820.08l-0.198-1.078h-0.065c-0.704,0.858-1.805,1.32-3.081,1.32c-2.178,0-3.477-1.584-3.477-3.301
		c0-2.794,2.509-4.137,6.315-4.114v-0.154c0-0.572-0.309-1.386-1.958-1.386c-1.101,0-2.267,0.374-2.971,0.813l-0.616-2.156
		c0.748-0.418,2.223-0.946,4.181-0.946c3.587,0,4.73,2.112,4.73,4.643v3.741c0,1.034,0.044,2.024,0.154,2.618H366.042z
		 M365.646,814.997c-1.761-0.021-3.125,0.396-3.125,1.694c0,0.858,0.572,1.276,1.32,1.276c0.836,0,1.519-0.55,1.738-1.232
		c0.044-0.176,0.066-0.374,0.066-0.572V814.997z"/>
	<path fill="#BCBCBC" d="M375.128,806.24v3.08h2.398v2.465h-2.398v3.895c0,1.298,0.308,1.892,1.32,1.892
		c0.418,0,0.748-0.044,0.989-0.088l0.022,2.53c-0.44,0.177-1.232,0.286-2.179,0.286c-1.078,0-1.979-0.374-2.508-0.924
		c-0.616-0.638-0.924-1.672-0.924-3.19v-4.4h-1.431v-2.465h1.431v-2.332L375.128,806.24z"/>
	<path fill="#BCBCBC" d="M382.915,806.328c0,0.924-0.704,1.672-1.805,1.672c-1.056,0-1.76-0.748-1.738-1.672
		c-0.021-0.968,0.683-1.694,1.761-1.694S382.893,805.36,382.915,806.328z M379.46,820.08v-10.76h3.345v10.76H379.46z"/>
	<path fill="#BCBCBC" d="M396.116,814.579c0,3.938-2.794,5.743-5.677,5.743c-3.146,0-5.566-2.068-5.566-5.545
		s2.288-5.699,5.742-5.699C393.916,809.078,396.116,811.344,396.116,814.579z M388.327,814.689c0,1.848,0.771,3.234,2.2,3.234
		c1.298,0,2.135-1.298,2.135-3.234c0-1.606-0.616-3.234-2.135-3.234C388.921,811.455,388.327,813.105,388.327,814.689z"/>
	<path fill="#BCBCBC" d="M398.182,812.752c0-1.342-0.044-2.486-0.088-3.433h2.904l0.154,1.475h0.066
		c0.439-0.683,1.54-1.717,3.322-1.717c2.2,0,3.851,1.452,3.851,4.621v6.381h-3.345v-5.963c0-1.386-0.484-2.332-1.694-2.332
		c-0.924,0-1.474,0.638-1.694,1.254c-0.088,0.198-0.132,0.528-0.132,0.836v6.205h-3.345V812.752z"/>
	<path fill="#BCBCBC" d="M417.191,820.08l-0.198-1.078h-0.065c-0.704,0.858-1.805,1.32-3.081,1.32c-2.178,0-3.477-1.584-3.477-3.301
		c0-2.794,2.509-4.137,6.315-4.114v-0.154c0-0.572-0.309-1.386-1.958-1.386c-1.101,0-2.267,0.374-2.971,0.813l-0.616-2.156
		c0.748-0.418,2.223-0.946,4.181-0.946c3.587,0,4.73,2.112,4.73,4.643v3.741c0,1.034,0.044,2.024,0.154,2.618H417.191z
		 M416.796,814.997c-1.761-0.021-3.125,0.396-3.125,1.694c0,0.858,0.572,1.276,1.32,1.276c0.836,0,1.519-0.55,1.738-1.232
		c0.044-0.176,0.066-0.374,0.066-0.572V814.997z"/>
	<path fill="#BCBCBC" d="M422.69,804.458h3.345v15.622h-3.345V804.458z"/>
	<path fill="#BCBCBC" d="M428.322,818.297c0-1.188,0.813-2.046,1.979-2.046c1.167,0,1.959,0.836,1.959,2.046
		c0,1.166-0.792,2.024-1.98,2.024C429.136,820.322,428.322,819.463,428.322,818.297z"/>
	<path fill="#BCBCBC" d="M444.912,814.579c0,3.938-2.794,5.743-5.677,5.743c-3.146,0-5.566-2.068-5.566-5.545
		s2.288-5.699,5.742-5.699C442.712,809.078,444.912,811.344,444.912,814.579z M437.123,814.689c0,1.848,0.771,3.234,2.2,3.234
		c1.298,0,2.135-1.298,2.135-3.234c0-1.606-0.616-3.234-2.135-3.234C437.717,811.455,437.123,813.105,437.123,814.689z"/>
	<path fill="#BCBCBC" d="M446.978,812.863c0-1.584-0.044-2.618-0.088-3.543h2.883l0.11,1.98h0.088
		c0.55-1.562,1.87-2.223,2.904-2.223c0.308,0,0.462,0,0.704,0.044v3.146c-0.242-0.044-0.528-0.088-0.902-0.088
		c-1.232,0-2.068,0.66-2.288,1.694c-0.044,0.221-0.066,0.484-0.066,0.748v5.457h-3.345V812.863z"/>
	<path fill="#BCBCBC" d="M465.459,809.32c-0.044,0.683-0.088,1.584-0.088,3.19v6.007c0,2.068-0.418,3.763-1.628,4.841
		c-1.188,1.013-2.794,1.32-4.379,1.32c-1.408,0-2.904-0.286-3.872-0.836l0.66-2.53c0.682,0.396,1.87,0.813,3.124,0.813
		c1.584,0,2.795-0.857,2.795-2.838v-0.704h-0.044c-0.639,0.902-1.673,1.408-2.904,1.408c-2.663,0-4.555-2.156-4.555-5.259
		c0-3.454,2.244-5.655,4.884-5.655c1.475,0,2.398,0.639,2.949,1.519h0.044l0.109-1.276H465.459z M462.027,813.699
		c0-0.22-0.022-0.44-0.066-0.616c-0.242-0.88-0.88-1.475-1.805-1.475c-1.21,0-2.2,1.101-2.2,3.059c0,1.606,0.792,2.86,2.2,2.86
		c0.858,0,1.541-0.571,1.761-1.364c0.088-0.241,0.11-0.594,0.11-0.88V813.699z"/>
</g>
</svg>
